<svg width="24" height="24" viewBox="0 0 24 24" fill="none" xmlns="http://www.w3.org/2000/svg">
<path d="M19.4967 7.9888L11.9997 15.2968L4.50275 7.9888C4.36881 7.85796 4.18899 7.7847 4.00175 7.7847C3.8145 7.7847 3.63469 7.85796 3.50075 7.9888C3.43589 8.05235 3.38437 8.1282 3.34919 8.21191C3.31402 8.29561 3.2959 8.3855 3.2959 8.4763C3.2959 8.5671 3.31402 8.65699 3.34919 8.7407C3.38437 8.82441 3.43589 8.90025 3.50075 8.9638L11.4762 16.7398C11.6163 16.8763 11.8042 16.9527 11.9997 16.9527C12.1953 16.9527 12.3832 16.8763 12.5232 16.7398L20.4987 8.9653C20.5641 8.90171 20.616 8.82567 20.6514 8.74169C20.6869 8.6577 20.7051 8.56746 20.7051 8.4763C20.7051 8.38514 20.6869 8.2949 20.6514 8.21092C20.616 8.12693 20.5641 8.05089 20.4987 7.9873C20.3648 7.85646 20.185 7.7832 19.9977 7.7832C19.8105 7.7832 19.6307 7.85646 19.4967 7.9873V7.9888Z" fill="black"/>
</svg>
