<svg width="69" height="24" viewBox="0 0 69 24" fill="none" xmlns="http://www.w3.org/2000/svg">
<path d="M1.93845 20V4.6H8.51646C9.58712 4.6 10.4891 4.76867 11.2225 5.106C11.9558 5.42867 12.5131 5.89067 12.8945 6.492C13.2905 7.07867 13.4885 7.77533 13.4885 8.582C13.4885 9.35933 13.3198 10.012 12.9825 10.54C12.6451 11.068 12.1978 11.4713 11.6405 11.75C11.0978 12.0287 10.4965 12.1973 9.83646 12.256L10.1885 11.992C10.9071 12.0213 11.5378 12.212 12.0805 12.564C12.6231 12.916 13.0485 13.378 13.3565 13.95C13.6791 14.5073 13.8405 15.1233 13.8405 15.798C13.8405 16.634 13.6425 17.3673 13.2465 17.998C12.8505 18.6287 12.2711 19.12 11.5085 19.472C10.7458 19.824 9.82179 20 8.73646 20H1.93845ZM5.23845 17.316H8.18645C8.91979 17.316 9.48446 17.1547 9.88046 16.832C10.2911 16.4947 10.4965 16.0107 10.4965 15.38C10.4965 14.7493 10.2838 14.258 9.85846 13.906C9.44779 13.554 8.87579 13.378 8.14245 13.378H5.23845V17.316ZM5.23845 10.936H7.94445C8.64845 10.936 9.18379 10.7747 9.55046 10.452C9.93179 10.1293 10.1225 9.67467 10.1225 9.088C10.1225 8.50133 9.93179 8.04667 9.55046 7.724C9.18379 7.38667 8.64112 7.218 7.92246 7.218H5.23845V10.936ZM20.6041 20V4.6H30.9221V7.262H23.9041V10.892H30.2621V13.444H23.9041V17.338H30.9221V20H20.6041ZM41.5017 20V7.262H37.0357V4.6H49.2677V7.262H44.8017V20H41.5017ZM53.0986 20L58.7086 4.6H62.4926L68.1026 20H64.6046L60.5786 8.318L56.5526 20H53.0986ZM55.5406 16.634L56.4206 14.082H64.4946L65.3526 16.634H55.5406Z" fill="#949292"/>
</svg>
