<svg width="18" height="21" viewBox="0 0 18 21" fill="none" xmlns="http://www.w3.org/2000/svg">
<path opacity="0.964" fill-rule="evenodd" clip-rule="evenodd" d="M1.54688 0.00293035C6.37505 -0.00488372 11.2032 0.00293035 16.0313 0.0263678C16.8412 0.180029 17.349 0.656588 17.5547 1.45606C17.586 7.33104 17.586 13.2061 17.5547 19.0811C17.1848 20.2623 16.3957 20.7076 15.1875 20.417C15.0625 20.3545 14.9375 20.292 14.8125 20.2295C12.8477 18.7355 10.8711 17.259 8.88281 15.7998C6.90183 17.2163 4.94091 18.6616 3 20.1357C2.33466 20.5913 1.63153 20.6538 0.890626 20.3232C0.399095 20.034 0.110031 19.6043 0.0234387 19.0342C-0.00781289 13.2061 -0.00781289 7.37792 0.0234387 1.54981C0.195948 0.697641 0.703764 0.182016 1.54688 0.00293035ZM1.73438 1.54981C6.4688 1.54199 11.2032 1.54981 15.9375 1.57324C15.9754 1.58766 16.0066 1.6111 16.0313 1.64356C16.0859 7.37604 16.0936 13.1104 16.0547 18.8467C15.9474 19.0003 15.8146 19.0238 15.6563 18.917C13.7115 17.4368 11.7584 15.9681 9.79688 14.5107C9.10613 14.1499 8.43422 14.1811 7.78125 14.6045C5.81363 16.1039 3.82922 17.5804 1.82813 19.0342C1.74572 19.0047 1.67541 18.9579 1.61719 18.8936C1.58592 13.1592 1.58592 7.42479 1.61719 1.69043C1.66617 1.64949 1.70522 1.60261 1.73438 1.54981Z" fill="#448D57"/>
</svg>
