<svg width="24" height="24" viewBox="0 0 24 24" fill="none" xmlns="http://www.w3.org/2000/svg">
<path d="M16.9639 6.26147C16.7991 6.46754 16.3221 6.6215 16.0593 6.6215C15.7722 6.6215 15.5362 6.42152 15.2842 6.30897C15.183 6.26375 15.7834 5.89127 15.8073 5.87643C16.0975 5.69666 16.4172 5.49011 16.7383 5.37138C16.7679 5.36045 16.9975 5.28137 16.9975 5.28137C17.0318 5.32309 16.7036 5.36137 16.6712 5.36137C16.0929 5.36137 15.5169 5.32386 14.9411 5.27386C14.4267 5.2292 13.8969 5.39109 13.3814 5.40388C12.7318 5.41999 12.079 5.36137 11.4282 5.36137C10.7321 5.36137 10.037 5.39974 9.34296 5.40638C8.88687 5.41074 8.43393 5.36137 7.98002 5.36137C7.83025 5.36137 7.61412 5.37969 7.48091 5.29137C7.37125 5.21865 7.15613 5.00134 7.0298 5.00134C6.90573 5.00134 6.60843 4.97262 6.59788 5.18136C6.59401 5.258 6.64784 5.35455 6.66507 5.42638C6.74112 5.74337 6.79301 6.06615 6.87623 6.38148C7.03249 6.97354 7.96361 7.39317 8.45513 7.5341C9.19846 7.74722 9.98812 7.78101 10.7539 7.81663C11.2877 7.84146 11.9271 7.73939 12.3808 8.09166C12.4753 8.16503 12.9653 8.4988 12.8463 8.67672C12.7325 8.84678 12.4357 8.92657 12.268 8.97925C11.9262 9.08661 11.5719 9.15562 11.2194 9.21177C10.3329 9.35299 9.51124 9.36888 8.65669 9.70182C8.01338 9.95246 7.47985 10.266 6.92902 10.6869C6.80287 10.7833 6.64107 9.65839 6.64107 9.43679C6.64107 8.65996 6.64088 10.991 6.60748 11.767C6.57253 12.5791 6.43821 13.3922 6.27634 14.1873C6.26886 14.2241 6.25991 14.3341 6.25235 14.2973C6.22133 14.1465 6.21645 13.9453 6.20436 13.8022C6.11826 12.7834 6.01875 11.7499 6.0004 10.7269C5.99482 10.4163 6.04923 10.1125 6.07958 9.80683C6.09253 9.6764 6.197 9.5838 6.24275 9.4668C6.28076 9.36958 6.20967 9.71158 6.20916 9.71682C6.06946 11.1542 6.18469 12.6235 6.16597 14.0673C6.16209 14.3657 6.09375 14.6522 6.07958 14.9474M6.07958 14.9474C6.07581 15.026 6.07958 15.0085 6.07958 14.9474Z" stroke="#448D57" stroke-width="5" stroke-linecap="round"/>
<path d="M16.7148 6.66601C17.1212 6.34097 17.4547 5.92613 17.8219 5.55891C17.8824 5.49849 17.9438 5.45958 17.9888 5.39209" stroke="#448D57" stroke-width="5" stroke-linecap="round"/>
<path d="M12.5293 11.5344C13.6734 11.085 14.7968 10.5726 15.9315 10.124C16.0864 10.0628 16.3417 10.0381 16.5078 10.0381C16.6316 10.0381 16.8196 10.9296 16.8566 11.0542C16.9473 11.3601 16.9199 11.7273 16.9324 12.04C16.9747 13.0974 16.897 14.1731 16.897 15.2349C16.897 15.5012 17.1172 15.7217 17.2383 15.9452C17.3677 16.1841 17.4885 16.9929 17.4885 16.7211" stroke="#448D57" stroke-width="5" stroke-linecap="round"/>
<path d="M12.3473 13.6274C11.5048 14.2804 10.5386 14.7472 9.64025 15.3108C9.15193 15.6172 8.62361 15.8181 8.1262 16.0944C7.69507 16.3339 7.17166 16.5839 6.81941 16.9361C6.55886 17.1967 6.3162 17.5091 6.07882 17.793C5.9728 17.9197 5.88672 18.0107 5.88672 18.1772" stroke="#448D57" stroke-width="5" stroke-linecap="round"/>
<path d="M8.88867 12.3988C9.03036 12.5791 9.33132 12.714 9.54333 12.8083C9.79221 12.9189 10.1835 12.7243 10.4533 12.6793C10.9697 12.5933 11.5117 12.1863 11.9522 11.9388C12.7008 11.5181 13.4166 11.0635 14.1032 10.5486C14.3796 10.3412 14.6601 10.1425 14.9752 9.99754C15.605 9.70782 16.3064 9.71444 16.9847 9.71444C17.2326 9.71444 17.4174 9.70805 17.6469 9.80544C17.6955 9.82607 17.8714 9.87285 17.887 9.94193C17.9564 10.2492 17.7183 10.795 17.6494 11.0844C17.4998 11.7129 17.2918 12.341 16.9771 12.9094C16.601 13.5886 16.0097 13.9527 15.3695 14.3451C14.8794 14.6455 14.5092 14.9696 14.1689 15.4395C14.0857 15.5545 14.4291 15.7165 14.5076 15.7631C14.856 15.9695 15.2114 16.1223 15.5768 16.2762C15.7813 16.3623 15.9289 16.539 16.1682 16.539" stroke="#448D57" stroke-width="5" stroke-linecap="round"/>
<path d="M15.7139 17.028C15.9349 17.4111 16.182 17.8926 16.5513 18.1586C16.7511 18.3024 16.9021 18.5912 17.1136 18.6969C17.5004 18.8903 17.9291 18.993 18.2981 19.2054C18.442 19.2883 18.4057 19.4463 18.4057 19.5882C18.4057 19.6923 18.4569 19.7259 18.5134 19.8036C18.6917 20.0488 18.6166 19.5871 18.5972 19.4806C18.5398 19.1666 18.3809 18.8514 18.2981 18.5414C18.1455 17.971 18.1764 17.3618 18.0169 16.8037C17.8924 16.368 17.5288 15.932 17.2931 15.5505C17.1986 15.3974 17.1032 15.2358 17.006 15.0898" stroke="#448D57" stroke-width="3" stroke-linecap="round"/>
<path d="M4.94727 20.5813C5.08187 20.4674 5.23538 20.3534 5.37796 20.2583" stroke="#448D57" stroke-width="3" stroke-linecap="round"/>
<path d="M14.5309 9.58914C13.4272 10.6091 12.3919 11.8515 11.9027 13.2924C11.8232 13.5263 11.5885 14.2222 11.8235 14.474C12.1281 14.8004 12.819 14.2177 12.9868 14.0659C13.7941 13.3358 15.0791 11.5019 13.6446 10.7099C13.4791 10.6185 13.1134 10.4892 13.0173 10.7525C12.9143 11.0343 12.9709 11.5165 13.0005 11.7651C13.0694 12.3435 13.1631 12.7858 13.3447 13.3381C13.4475 13.651 13.7621 14.3631 13.9675 14.1055C14.0738 13.972 14.1259 13.8006 14.173 13.6365C14.3954 12.8614 14.4663 12.0825 14.4715 11.2748C14.4746 10.7863 14.4717 10.2937 14.3938 9.81145C14.3387 9.46992 14.1312 8.4466 13.5563 8.33442C13.3433 8.29285 13.1173 8.42571 12.9442 8.55674C12.4133 8.95866 12.1364 9.63146 11.9529 10.2378C11.7589 10.8789 11.5296 12.0309 12.1463 12.5737C12.7114 13.071 13.6352 12.671 14.1441 12.3452C14.7026 11.9878 15.3861 11.3428 14.942 10.6063C14.469 9.82188 13.0602 9.28011 12.3351 10.049C11.7152 10.7063 11.8176 11.8166 12.1646 12.5599C12.5567 13.4001 13.3295 13.9367 14.2781 13.603C15.1764 13.287 15.9371 12.3845 16.084 11.4484C16.1304 11.1528 16.1184 10.8429 16.0505 10.5515C15.969 10.2015 15.596 9.48988 15.2161 9.312C15.0793 9.24797 14.8811 9.26068 14.7654 9.35768C14.3411 9.71332 14.4467 10.6233 14.4989 11.0053C14.6792 12.3246 15.262 13.6493 16.1754 14.6293C16.6908 15.1824 17.5157 15.7489 18.3178 15.5308C19.1772 15.2971 19.0535 14.3844 18.7747 13.7553C18.6735 13.5271 18.4027 12.9488 18.1245 12.8264C17.9136 12.7337 17.8195 13.366 17.8169 13.3792C17.7219 13.8523 17.6861 14.353 17.7468 14.8334C17.7584 14.9247 17.8059 15.4282 18.0453 15.2871C18.3716 15.0948 18.6177 14.5939 18.7701 14.273C18.8842 14.0327 19.0747 13.62 18.9422 13.3411C18.8399 13.1259 18.4899 13.1039 18.2859 13.0426" stroke="#448D57" stroke-width="3" stroke-linecap="round"/>
<path opacity="0.964" fill-rule="evenodd" clip-rule="evenodd" d="M4.71094 2.00293C9.53911 1.99512 14.3672 2.00293 19.1953 2.02637C20.0053 2.18003 20.5131 2.65659 20.7188 3.45606C20.75 9.33104 20.75 15.2061 20.7188 21.0811C20.3488 22.2623 19.5597 22.7076 18.3516 22.417C18.2265 22.3545 18.1016 22.292 17.9766 22.2295C16.0118 20.7355 14.0352 19.259 12.0469 17.7998C10.0659 19.2163 8.10497 20.6616 6.16406 22.1357C5.49872 22.5913 4.79559 22.6538 4.05469 22.3232C3.56316 22.034 3.27409 21.6043 3.1875 21.0342C3.15625 15.2061 3.15625 9.37792 3.1875 3.54981C3.36001 2.69764 3.86783 2.18202 4.71094 2.00293ZM4.89844 3.54981C9.63286 3.54199 14.3672 3.54981 19.1016 3.57324C19.1394 3.58766 19.1707 3.6111 19.1953 3.64356C19.2499 9.37604 19.2577 15.1104 19.2188 20.8467C19.1115 21.0003 18.9787 21.0238 18.8203 20.917C16.8756 19.4368 14.9225 17.9681 12.9609 16.5107C12.2702 16.1499 11.5983 16.1811 10.9453 16.6045C8.97769 18.1039 6.99328 19.5804 4.99219 21.0342C4.90978 21.0047 4.83947 20.9579 4.78125 20.8936C4.74999 15.1592 4.74999 9.42479 4.78125 3.69043C4.83024 3.64949 4.86928 3.60261 4.89844 3.54981Z" fill="#448D57"/>
</svg>
