<svg width="25" height="24" viewBox="0 0 25 24" fill="none" xmlns="http://www.w3.org/2000/svg">
<path opacity="0.964" fill-rule="evenodd" clip-rule="evenodd" d="M4.96484 2.00293C9.79302 1.99512 14.6211 2.00293 19.4492 2.02637C20.2592 2.18003 20.767 2.65659 20.9727 3.45606C21.0039 9.33104 21.0039 15.2061 20.9727 21.0811C20.6027 22.2623 19.8136 22.7076 18.6055 22.417C18.4805 22.3545 18.3555 22.292 18.2305 22.2295C16.2657 20.7355 14.2891 19.259 12.3008 17.7998C10.3198 19.2163 8.35888 20.6616 6.41797 22.1357C5.75263 22.5913 5.0495 22.6538 4.30859 22.3232C3.81706 22.034 3.528 21.6043 3.44141 21.0342C3.41016 15.2061 3.41016 9.37792 3.44141 3.54981C3.61392 2.69764 4.12173 2.18202 4.96484 2.00293ZM5.15234 3.54981C9.88677 3.54199 14.6211 3.54981 19.3555 3.57324C19.3933 3.58766 19.4246 3.6111 19.4492 3.64356C19.5038 9.37604 19.5116 15.1104 19.4727 20.8467C19.3654 21.0003 19.2326 21.0238 19.0742 20.917C17.1295 19.4368 15.1764 17.9681 13.2148 16.5107C12.5241 16.1499 11.8522 16.1811 11.1992 16.6045C9.2316 18.1039 7.24719 19.5804 5.24609 21.0342C5.16369 21.0047 5.09338 20.9579 5.03516 20.8936C5.00389 15.1592 5.00389 9.42479 5.03516 3.69043C5.08414 3.64949 5.12319 3.60261 5.15234 3.54981Z" fill="black"/>
</svg>
