<svg width="18" height="21" viewBox="0 0 18 21" fill="none" xmlns="http://www.w3.org/2000/svg">
<path opacity="0.964" fill-rule="evenodd" clip-rule="evenodd" d="M1.71094 0.00293035C6.53911 -0.00488372 11.3672 0.00293035 16.1953 0.0263678C17.0053 0.180029 17.5131 0.656588 17.7188 1.45606C17.75 7.33104 17.75 13.2061 17.7188 19.0811C17.3488 20.2623 16.5597 20.7076 15.3516 20.417C15.2265 20.3545 15.1016 20.292 14.9766 20.2295C13.0118 18.7355 11.0352 17.259 9.04688 15.7998C7.06589 17.2163 5.10497 18.6616 3.16406 20.1357C2.49872 20.5913 1.79559 20.6538 1.05469 20.3232C0.563157 20.034 0.274093 19.6043 0.187501 19.0342C0.15625 13.2061 0.15625 7.37792 0.187501 1.54981C0.360011 0.697641 0.867826 0.182016 1.71094 0.00293035ZM1.89844 1.54981C6.63286 1.54199 11.3672 1.54981 16.1016 1.57324C16.1394 1.58766 16.1707 1.6111 16.1953 1.64356C16.2499 7.37604 16.2577 13.1104 16.2188 18.8467C16.1115 19.0003 15.9787 19.0238 15.8203 18.917C13.8756 17.4368 11.9225 15.9681 9.96094 14.5107C9.27019 14.1499 8.59828 14.1811 7.94531 14.6045C5.97769 16.1039 3.99328 17.5804 1.99219 19.0342C1.90978 19.0047 1.83947 18.9579 1.78125 18.8936C1.74999 13.1592 1.74999 7.42479 1.78125 1.69043C1.83024 1.64949 1.86928 1.60261 1.89844 1.54981Z" fill="black"/>
</svg>
