<svg width="30" height="30" viewBox="0 0 30 30" fill="none" xmlns="http://www.w3.org/2000/svg">
<path d="M28.1252 10.3395C28.0781 11.9716 27.4071 13.5234 26.2502 14.6755L22.1779 18.7501C21.5848 19.3464 20.8793 19.8192 20.1023 20.1411C19.3252 20.4629 18.492 20.6274 17.651 20.6251H17.6451C16.7897 20.6245 15.943 20.4524 15.1552 20.1191C14.3674 19.7858 13.6544 19.298 13.0582 18.6845C12.4621 18.071 11.995 17.3443 11.6844 16.5472C11.3739 15.7501 11.2262 14.8989 11.2502 14.0438C11.2572 13.7952 11.3627 13.5595 11.5434 13.3886C11.7242 13.2178 11.9654 13.1257 12.214 13.1327C12.4627 13.1397 12.6984 13.2452 12.8692 13.4259C13.0401 13.6067 13.1322 13.8479 13.1252 14.0966C13.1081 14.7012 13.2124 15.3031 13.4319 15.8667C13.6514 16.4303 13.9816 16.9442 14.4031 17.378C14.8246 17.8118 15.3287 18.1567 15.8858 18.3924C16.4428 18.6281 17.0414 18.7497 17.6463 18.7501C18.2408 18.7515 18.8298 18.6352 19.3791 18.4077C19.9284 18.1802 20.4272 17.8461 20.8467 17.4247L24.9189 13.3524C25.7591 12.5017 26.2286 11.353 26.2249 10.1573C26.2211 8.96161 25.7445 7.81595 24.899 6.97045C24.0535 6.12495 22.9078 5.6483 21.7121 5.64456C20.5164 5.64081 19.3678 6.11029 18.517 6.95048L17.2279 8.23954C17.0507 8.40793 16.8147 8.50042 16.5702 8.49729C16.3257 8.49416 16.0922 8.39566 15.9193 8.22278C15.7464 8.04991 15.6479 7.81634 15.6448 7.57187C15.6416 7.32741 15.7341 7.09139 15.9025 6.91415L17.1916 5.62509C17.7863 5.03016 18.4924 4.55823 19.2696 4.23624C20.0467 3.91426 20.8797 3.74854 21.7209 3.74854C22.5621 3.74854 23.3951 3.91426 24.1722 4.23624C24.9494 4.55823 25.6555 5.03016 26.2502 5.62509C26.8662 6.24261 27.3501 6.97903 27.6724 7.78952C27.9948 8.60001 28.1488 9.46762 28.1252 10.3395ZM12.7736 21.7571L11.4846 23.0462C11.0642 23.4695 10.5638 23.8049 10.0125 24.0331C9.4613 24.2612 8.8702 24.3775 8.27362 24.3751C7.37866 24.3744 6.50399 24.1084 5.76014 23.6108C5.01628 23.1131 4.43661 22.4062 4.09438 21.5793C3.75214 20.7523 3.66269 19.8425 3.83733 18.9648C4.01197 18.087 4.44287 17.2807 5.07557 16.6477L9.14081 12.5755C9.7811 11.9318 10.6002 11.4955 11.4916 11.3233C12.383 11.1511 13.3056 11.2509 14.1396 11.6098C14.9736 11.9686 15.6804 12.57 16.1682 13.3357C16.656 14.1014 16.9024 14.9961 16.8752 15.9036C16.8682 16.1522 16.9603 16.3935 17.1311 16.5742C17.302 16.755 17.5377 16.8605 17.7863 16.8675C18.035 16.8745 18.2762 16.7824 18.4569 16.6115C18.6377 16.4407 18.7432 16.205 18.7502 15.9563C18.7727 15.0858 18.6181 14.2197 18.2958 13.4107C17.9735 12.6017 17.4902 11.8667 16.8752 11.2501C15.6742 10.0496 14.0457 9.37529 12.3476 9.37529C10.6496 9.37529 9.02106 10.0496 7.8201 11.2501L3.75018 15.3224C2.85514 16.217 2.24539 17.357 1.99801 18.5981C1.75062 19.8392 1.87668 21.1258 2.36028 22.2952C2.84387 23.4647 3.66329 24.4646 4.71497 25.1685C5.76666 25.8725 7.00341 26.2488 8.26893 26.2501C9.11018 26.2525 9.94357 26.088 10.7208 25.7662C11.4981 25.4444 12.2038 24.9715 12.7971 24.3751L14.0861 23.086C14.2378 22.9073 14.3171 22.6783 14.3083 22.444C14.2995 22.2097 14.2032 21.9873 14.0385 21.8205C13.8737 21.6537 13.6525 21.5547 13.4184 21.543C13.1842 21.5312 12.9542 21.6076 12.7736 21.7571Z" fill="black"/>
</svg>
