<svg width="30" height="30" viewBox="0 0 30 30" fill="none" xmlns="http://www.w3.org/2000/svg">
<path fill-rule="evenodd" clip-rule="evenodd" d="M2.67871 24.9107V4.82143C2.67871 3.54271 3.18668 2.31636 4.09087 1.41216C4.99507 0.507971 6.22142 0 7.50014 0L22.5001 0C23.7789 0 25.0052 0.507971 25.9094 1.41216C26.8136 2.31636 27.3216 3.54271 27.3216 4.82143V21.4286C27.3216 21.8548 27.1522 22.2636 26.8508 22.565C26.5494 22.8664 26.1407 23.0357 25.7144 23.0357H25.1787V26.7857H25.7144C26.1407 26.7857 26.5494 26.955 26.8508 27.2564C27.1522 27.5578 27.3216 27.9666 27.3216 28.3929C27.3216 28.8191 27.1522 29.2279 26.8508 29.5293C26.5494 29.8307 26.1407 30 25.7144 30H7.768C6.41823 30 5.12375 29.4638 4.16933 28.5094C3.2149 27.555 2.67871 26.2605 2.67871 24.9107ZM21.9644 23.0357H7.768C7.27072 23.0357 6.7938 23.2333 6.44217 23.5849C6.09054 23.9365 5.893 24.4134 5.893 24.9107C5.893 25.408 6.09054 25.8849 6.44217 26.2365C6.7938 26.5882 7.27072 26.7857 7.768 26.7857H21.9644V23.0357ZM23.1644 10.2257C23.0741 10.0513 22.9376 9.90515 22.7698 9.80312C22.602 9.70108 22.4094 9.64713 22.213 9.64714H17.2544C16.9703 9.64714 16.6977 9.76003 16.4968 9.96096C16.2959 10.1619 16.183 10.4344 16.183 10.7186C16.183 11.0027 16.2959 11.2753 16.4968 11.4762C16.6977 11.6771 16.9703 11.79 17.2544 11.79H20.143L16.0694 17.5414C15.9558 17.7018 15.8886 17.8903 15.8749 18.0863C15.8613 18.2823 15.9018 18.4783 15.992 18.6529C16.0823 18.8274 16.2188 18.9738 16.3867 19.0759C16.5545 19.1781 16.7472 19.2321 16.9437 19.2321H22.5237C22.8079 19.2321 23.0804 19.1193 23.2813 18.9183C23.4823 18.7174 23.5951 18.4449 23.5951 18.1607C23.5951 17.8766 23.4823 17.604 23.2813 17.4031C23.0804 17.2022 22.8079 17.0893 22.5237 17.0893H19.0159L23.0873 11.3379C23.2013 11.1776 23.269 10.9891 23.283 10.7929C23.297 10.5967 23.2546 10.4005 23.1644 10.2257ZM12.4609 5.63571C12.3319 5.25196 12.0856 4.91839 11.7569 4.68208C11.4282 4.44577 11.0336 4.31864 10.6287 4.31864C10.2239 4.31864 9.82923 4.44577 9.5005 4.68208C9.17177 4.91839 8.92555 5.25196 8.79657 5.63571L7.34585 9.98571L7.33085 10.0329L6.51014 12.4886C6.46554 12.6222 6.4477 12.7634 6.45764 12.9039C6.46759 13.0445 6.50512 13.1817 6.5681 13.3078C6.63108 13.4338 6.71827 13.5463 6.82469 13.6386C6.93111 13.731 7.05469 13.8015 7.18835 13.8461C7.45831 13.9362 7.75299 13.9153 8.00757 13.7881C8.13362 13.7251 8.24604 13.6379 8.3384 13.5315C8.43076 13.4251 8.50125 13.3015 8.54585 13.1679L9.12442 11.4193H12.1287L12.7116 13.1679C12.8016 13.4375 12.9952 13.6604 13.2495 13.7874C13.5039 13.9143 13.7983 13.9351 14.068 13.845C14.3377 13.7549 14.5605 13.5614 14.6875 13.307C14.8145 13.0526 14.8352 12.7582 14.7451 12.4886L13.9266 10.0329L13.9094 9.98571L12.4609 5.63571ZM9.83585 9.27429L10.6244 6.91286L11.4109 9.27429H9.83585Z" fill="black"/>
</svg>
