<svg width="24" height="24" viewBox="0 0 24 24" fill="none" xmlns="http://www.w3.org/2000/svg">
<g clip-path="url(#clip0_4037_28741)">
<g clip-path="url(#clip1_4037_28741)">
<path d="M16.4585 11.414V0.75H7.54345V11.414V12.164H6.79345H2.03397C1.3642 12.1932 1.06735 12.3856 0.928013 12.5775L0.928025 12.5775L0.925175 12.5814C0.705965 12.8792 0.705216 13.1489 0.85111 13.476C1.01771 13.8495 1.36266 14.2391 1.76109 14.5928L1.7611 14.5929L10.9673 22.7673L10.9841 22.7823L11 22.7982C11.6014 23.4006 12.4005 23.4006 13.0019 22.7982L13.0183 22.7818L13.0357 22.7665L22.0148 14.8212L22.0148 14.8212C22.4553 14.4314 22.8781 13.9994 23.1011 13.57C23.2079 13.3642 23.2511 13.1919 23.25 13.0482C23.249 12.9157 23.2109 12.7635 23.0768 12.5814L23.074 12.5775C22.9347 12.3857 22.6379 12.1932 21.9675 12.164H17.2085H16.4585V11.414Z" stroke="#FF0000" stroke-width="1.5"/>
</g>
</g>
<defs>
<clipPath id="clip0_4037_28741">
<rect width="24" height="24" fill="white" transform="matrix(-1 0 0 -1 24 24)"/>
</clipPath>
<clipPath id="clip1_4037_28741">
<rect width="24" height="24" fill="white" transform="matrix(1 0 0 -1 0 24)"/>
</clipPath>
</defs>
</svg>
