<svg width="26" height="26" viewBox="0 0 26 26" fill="none" xmlns="http://www.w3.org/2000/svg">
<path d="M5.6875 12.1875H21.9375C22.153 12.1875 22.3597 12.2731 22.512 12.4255C22.6644 12.5778 22.75 12.7845 22.75 13C22.75 13.2155 22.6644 13.4222 22.512 13.5745C22.3597 13.7269 22.153 13.8125 21.9375 13.8125H5.6875C5.47201 13.8125 5.26535 13.7269 5.11298 13.5745C4.9606 13.4222 4.875 13.2155 4.875 13C4.875 12.7845 4.9606 12.5778 5.11298 12.4255C5.26535 12.2731 5.47201 12.1875 5.6875 12.1875Z" fill="black"/>
<path d="M6.02435 13L12.7632 19.7373C12.9158 19.8899 13.0015 20.0968 13.0015 20.3125C13.0015 20.5283 12.9158 20.7352 12.7632 20.8878C12.6107 21.0404 12.4037 21.1261 12.188 21.1261C11.9722 21.1261 11.7653 21.0404 11.6127 20.8878L4.30023 13.5753C4.22456 13.4998 4.16453 13.4102 4.12357 13.3115C4.08261 13.2127 4.06152 13.1069 4.06152 13C4.06152 12.8932 4.08261 12.7874 4.12357 12.6886C4.16453 12.5899 4.22456 12.5003 4.30023 12.4248L11.6127 5.1123C11.7653 4.95973 11.9722 4.87402 12.188 4.87402C12.4037 4.87402 12.6107 4.95973 12.7632 5.1123C12.9158 5.26487 13.0015 5.47179 13.0015 5.68755C13.0015 5.90331 12.9158 6.11023 12.7632 6.2628L6.02435 13Z" fill="black"/>
</svg>
