<svg width="40" height="40" viewBox="0 0 40 40" fill="none" xmlns="http://www.w3.org/2000/svg">
<g clip-path="url(#clip0_3643_29017)">
<path opacity="0.932" fill-rule="evenodd" clip-rule="evenodd" d="M39.9619 12.7453C39.9619 13.0248 39.9619 13.3042 39.9619 13.5837C39.8236 13.887 39.5949 14.1029 39.2759 14.2316C38.6657 14.4222 38.0559 14.6127 37.4466 14.8032C37.3704 16.2505 37.345 17.6986 37.3704 19.1477C38.8111 19.6656 39.3573 20.6818 39.0091 22.1965C38.8577 22.6521 38.5909 23.0206 38.2088 23.3017C38.5994 23.8633 38.8408 24.4857 38.9329 25.1691C39.085 26.1807 39.1358 27.1969 39.0854 28.2179C38.9577 28.7012 38.6656 29.0441 38.2088 29.2468C37.7193 29.331 37.2239 29.3691 36.7226 29.3611C36.3034 29.3484 35.8841 29.3358 35.4649 29.323C34.6415 29.0185 34.2604 28.4214 34.3216 27.5319C34.313 26.2794 34.5036 25.0599 34.8933 23.8733C35.0172 23.6891 35.1316 23.4986 35.2363 23.3017C34.2436 22.3518 34.0784 21.2721 34.7409 20.0624C34.9568 19.8464 35.1728 19.6304 35.3887 19.4145C35.6254 19.2721 35.8794 19.1832 36.1509 19.1477C36.1763 17.8256 36.1509 16.5045 36.0747 15.1843C34.5797 15.6406 33.0806 16.0853 31.5777 16.5182C31.4391 18.3683 31.3755 20.2357 31.3872 22.1203C31.2769 22.7132 30.9594 23.1579 30.4345 23.4541C28.0439 24.6997 25.5032 25.4365 22.8125 25.6645C24.7215 26.2371 26.627 26.8214 28.529 27.4175C29.0033 27.6632 29.3463 28.0316 29.5579 28.5227C30.0431 30.4412 29.662 32.1688 28.4146 33.7057C27.8363 34.3697 27.1122 34.6364 26.2424 34.506C19.0777 32.321 11.9131 30.1361 4.74848 27.9511C3.57354 27.7416 2.92567 27.0429 2.80488 25.855C2.60495 23.9389 3.202 22.3255 4.59604 21.0151C5.11992 20.6265 5.70427 20.4995 6.34909 20.634C7.37273 20.9287 8.38899 21.2462 9.39787 21.5868C9.49947 19.9099 9.49947 18.2331 9.39787 16.5563C6.69202 15.7686 3.99893 14.9429 1.3186 14.0791C1.16232 13.9294 1.03529 13.7642 0.9375 13.5837C0.9375 13.3042 0.9375 13.0248 0.9375 12.7453C1.10818 12.3845 1.38765 12.1431 1.77591 12.0212C7.82266 10.2428 13.8694 8.46429 19.9162 6.68584C20.3787 6.62452 20.8361 6.64992 21.2881 6.76206C24.7215 7.76649 28.1514 8.78271 31.5777 9.81084C32.0173 10.0912 32.0681 10.4342 31.7302 10.8398C31.6019 10.923 31.4622 10.9739 31.311 10.9922C27.8126 9.98104 24.3192 8.95207 20.8308 7.90535C20.6021 7.85453 20.3735 7.85453 20.1448 7.90535C14.1952 9.643 8.25005 11.3961 2.30945 13.1645C5.82091 14.191 9.32698 15.2327 12.8277 16.2895C13.087 16.573 13.1252 16.8906 12.9421 17.2422C12.6939 17.3893 12.4271 17.4274 12.1418 17.3566C11.684 17.2168 11.2267 17.077 10.7698 16.9374C10.6809 17.6983 10.6683 18.4605 10.7317 19.2239C13.7136 21.0178 16.953 21.9069 20.4497 21.8916C23.9464 21.9069 27.1857 21.0178 30.1677 19.2239C30.2311 18.4605 30.2184 17.6983 30.1296 16.9374C27.2568 17.7806 24.3858 18.6317 21.5168 19.4907C20.8054 19.7448 20.094 19.7448 19.3826 19.4907C17.8373 19.018 16.2876 18.5607 14.7332 18.1188C14.2338 17.8492 14.1576 17.4935 14.5046 17.0517C14.7486 16.9387 15.0027 16.9132 15.2668 16.9755C16.8928 17.4582 18.5188 17.9409 20.1448 18.4236C20.3481 18.4745 20.5513 18.4745 20.7546 18.4236C24.951 17.1904 29.1431 15.9454 33.3308 14.6889C29.1117 14.35 24.8943 13.9943 20.6784 13.6218C20.2946 13.3922 20.2056 13.0746 20.4116 12.6691C20.4804 12.5775 20.5693 12.514 20.6784 12.4785C26.0396 12.8808 31.4003 13.2874 36.7607 13.698C37.3749 13.5356 37.9847 13.3578 38.5899 13.1645C36.8912 12.6445 35.1889 12.1364 33.4832 11.6401C33.1975 11.3934 33.134 11.1012 33.2927 10.7636C33.4283 10.591 33.6062 10.4894 33.8262 10.4587C35.6682 11.005 37.5101 11.5512 39.3521 12.0974C39.6248 12.2555 39.828 12.4714 39.9619 12.7453ZM36.3796 20.291C37.522 20.2404 37.992 20.7739 37.7896 21.8916C37.3796 22.5928 36.8079 22.758 36.0747 22.3871C35.3018 21.5635 35.4035 20.8648 36.3796 20.291ZM10.6936 20.6721C14.6184 22.7279 18.7851 23.4775 23.1936 22.9206C25.6671 22.6232 27.9918 21.8737 30.1677 20.6721C30.2185 21.1041 30.2185 21.5359 30.1677 21.9678C29.8409 22.3801 29.4216 22.6723 28.9101 22.8444C25.6912 24.2193 22.3375 24.7528 18.8491 24.445C16.1849 23.6201 13.5172 22.8072 10.846 22.006C10.6993 21.584 10.6485 21.1394 10.6936 20.6721ZM5.58689 21.8154C5.89893 21.7548 6.1403 21.8564 6.31098 22.1203C6.46236 22.5637 6.53858 23.021 6.53963 23.4922C6.69057 23.9043 6.98274 24.044 7.41616 23.9114C7.50508 23.8225 7.594 23.7336 7.68293 23.6447C7.74433 23.2191 7.73162 22.7999 7.64482 22.3871C10.8022 23.2784 13.9526 24.2184 17.096 25.2072C17.4235 25.6008 17.5759 26.0581 17.5534 26.5791C17.5071 27.7861 17.0752 28.8278 16.2576 29.7041C16.0787 29.8444 15.8754 29.9333 15.6479 29.9709C12.5117 29.0355 9.38666 28.0701 6.27287 27.0746C6.64135 26.7201 6.89541 26.3009 7.03506 25.8169C6.92507 25.2251 6.59479 25.0599 6.04421 25.3215C5.76729 25.7864 5.41161 26.1802 4.97713 26.5029C4.77048 26.6405 4.56723 26.6405 4.36738 26.5029C4.00614 25.9067 3.89181 25.2589 4.02439 24.5593C4.17363 23.4213 4.69446 22.5066 5.58689 21.8154ZM36.6082 23.7971C37.2229 23.9171 37.5659 24.2982 37.6372 24.9404C37.8313 25.9484 37.9075 26.9646 37.8659 27.9892C37.8277 28.0273 37.7896 28.0654 37.7515 28.1035C37.0655 28.1544 36.3796 28.1544 35.6936 28.1035C35.6459 28.0464 35.6078 27.9828 35.5793 27.913C35.5616 26.941 35.6378 25.9755 35.8079 25.0166C35.9074 24.484 36.1742 24.0775 36.6082 23.7971ZM18.6966 25.7026C21.8226 26.6471 24.9476 27.5999 28.0716 28.5608C28.4429 28.937 28.6207 29.3943 28.6052 29.9328C28.5454 31.246 28.0372 32.3385 27.0808 33.2102C26.9453 33.2639 26.8055 33.302 26.6616 33.3246C23.5195 32.3873 20.3818 31.4345 17.2485 30.4663C18.4563 29.104 18.939 27.5161 18.6966 25.7026Z" fill="black"/>
</g>
<defs>
<clipPath id="clip0_3643_29017">
<rect width="40" height="29" fill="white" transform="translate(0 6)"/>
</clipPath>
</defs>
</svg>
