<svg width="30" height="30" viewBox="0 0 30 30" fill="none" xmlns="http://www.w3.org/2000/svg">
<path d="M14.6275 24.9278C14.7908 24.9278 14.9583 24.8911 15.13 24.8178C15.3017 24.7445 15.4404 24.6549 15.5463 24.5491L25.2913 14.8028C25.6054 14.4886 25.8479 14.1678 26.0188 13.8403C26.1888 13.5111 26.2738 13.1503 26.2738 12.7578C26.2738 12.3603 26.1888 11.9745 26.0188 11.6003C25.8479 11.2253 25.6054 10.8836 25.2913 10.5753L20.6038 5.88781C20.2946 5.57365 19.9767 5.34323 19.65 5.19656C19.3242 5.0499 18.9625 4.97656 18.565 4.97656C18.1725 4.97656 17.8079 5.0499 17.4713 5.19656C17.1346 5.34323 16.8175 5.57323 16.52 5.88656L15.43 6.97656L17.7425 9.29531C17.9908 9.53948 18.1763 9.81698 18.2988 10.1278C18.4204 10.4386 18.4813 10.7541 18.4813 11.0741C18.4813 11.7249 18.2683 12.2632 17.8425 12.6891C17.4167 13.1149 16.8788 13.3274 16.2288 13.3266C15.9079 13.3266 15.595 13.2778 15.29 13.1803C14.985 13.0828 14.7104 12.912 14.4663 12.6678L12.075 10.2853L6.67751 15.6816C6.55168 15.8082 6.4571 15.952 6.39376 16.1128C6.33043 16.2736 6.29876 16.4361 6.29876 16.6003C6.29876 16.8953 6.39335 17.1382 6.58251 17.3291C6.77084 17.5207 7.01251 17.6166 7.30751 17.6166C7.47085 17.6166 7.63835 17.5799 7.81001 17.5066C7.98168 17.4324 8.12043 17.3424 8.22626 17.2366L12.1875 13.2753L13.0725 14.1603L9.11751 18.1228C8.99085 18.2486 8.89585 18.392 8.83251 18.5528C8.77001 18.7145 8.73876 18.877 8.73876 19.0403C8.73876 19.3195 8.8371 19.5574 9.03376 19.7541C9.23043 19.9507 9.46835 20.0495 9.74751 20.0503C9.91085 20.0503 10.0783 20.0132 10.25 19.9391C10.4217 19.8649 10.5604 19.7753 10.6663 19.6703L14.9163 15.4278L15.8013 16.3116L11.5575 20.5616C11.4467 20.6674 11.3558 20.8061 11.285 20.9778C11.2133 21.1495 11.1775 21.317 11.1775 21.4803C11.1775 21.7586 11.2763 21.9961 11.4738 22.1928C11.6704 22.3911 11.9083 22.4903 12.1875 22.4903C12.3508 22.4903 12.5133 22.4586 12.675 22.3953C12.8367 22.332 12.98 22.237 13.105 22.1103L17.355 17.8666L18.24 18.7516L13.99 23.0016C13.8642 23.1282 13.7696 23.2803 13.7063 23.4578C13.6429 23.6353 13.6113 23.7974 13.6113 23.9441C13.6113 24.2391 13.715 24.477 13.9225 24.6578C14.13 24.8386 14.365 24.9291 14.6275 24.9291M14.62 26.1791C13.9775 26.1791 13.4275 25.9441 12.97 25.4741C12.5125 25.0032 12.3117 24.4224 12.3675 23.7316C11.6592 23.7399 11.0696 23.5286 10.5988 23.0978C10.1279 22.6661 9.90418 22.0645 9.92751 21.2928C9.15585 21.3011 8.54751 21.0803 8.10251 20.6303C7.65751 20.1803 7.45501 19.5878 7.49501 18.8528C6.80001 18.8611 6.21835 18.6653 5.75001 18.2653C5.28251 17.867 5.04876 17.312 5.04876 16.6003C5.04876 16.2795 5.11085 15.9586 5.23501 15.6378C5.35918 15.3161 5.54251 15.0336 5.78501 14.7903L12.075 8.50781L15.3025 11.7353C15.4083 11.8461 15.5392 11.9374 15.695 12.0091C15.8508 12.0807 16.0263 12.1161 16.2213 12.1153C16.4888 12.1153 16.725 12.022 16.93 11.8353C17.135 11.6486 17.2379 11.4053 17.2388 11.1053C17.2388 10.9103 17.2029 10.7353 17.1313 10.5803C17.0596 10.4245 16.9688 10.2936 16.8588 10.1878L12.5588 5.88781C12.2488 5.57365 11.9267 5.34323 11.5925 5.19656C11.2583 5.0499 10.8925 4.97656 10.495 4.97656C10.1025 4.97656 9.74585 5.0499 9.42501 5.19656C9.10501 5.34323 8.78793 5.57365 8.47376 5.88781L4.66876 9.70031C4.40043 9.96698 4.18376 10.2857 4.01876 10.6566C3.85376 11.0266 3.76626 11.4086 3.75626 11.8028C3.74793 12.0853 3.7721 12.3566 3.82876 12.6166C3.88543 12.8766 3.9771 13.1216 4.10376 13.3516L3.15626 14.2991C2.94626 13.9641 2.7821 13.5782 2.66376 13.1416C2.54543 12.7049 2.49085 12.2591 2.50001 11.8041C2.51001 11.2357 2.62376 10.692 2.84126 10.1728C3.05876 9.65365 3.37043 9.19073 3.77626 8.78406L7.55751 5.00281C7.99335 4.57115 8.4546 4.25031 8.94126 4.04031C9.42793 3.83115 9.95418 3.72656 10.52 3.72656C11.0858 3.72656 11.6075 3.83156 12.085 4.04156C12.5633 4.25073 13.0183 4.57115 13.45 5.00281L14.5375 6.09156L15.6275 5.00281C16.0633 4.57115 16.5204 4.25031 16.9988 4.04031C17.4771 3.83115 17.9992 3.72656 18.565 3.72656C19.1308 3.72656 19.6571 3.83156 20.1438 4.04156C20.6296 4.25073 21.0879 4.57115 21.5188 5.00281L26.1763 9.65906C26.6071 10.0899 26.9396 10.5736 27.1738 11.1103C27.4079 11.647 27.5246 12.1982 27.5238 12.7641C27.5238 13.3307 27.4071 13.8528 27.1738 14.3303C26.9404 14.8078 26.6079 15.2628 26.1763 15.6953L16.43 25.4328C16.1708 25.6928 15.8883 25.882 15.5825 26.0003C15.2775 26.1186 14.9567 26.1778 14.62 26.1778" fill="black"/>
</svg>
