<svg width="30" height="30" viewBox="0 0 30 30" fill="none" xmlns="http://www.w3.org/2000/svg">
<path d="M29.0063 14.6812C27.9355 11.8789 26.0681 9.45106 23.6345 7.69688L28.1251 3.19688L26.8032 1.875L1.87509 26.8031L3.19696 28.125L7.97821 23.3531C10.1127 24.5962 12.5304 25.2708 15.0001 25.3125C18.0559 25.1976 21.011 24.1898 23.5002 22.4137C25.9894 20.6375 27.9037 18.171 29.0063 15.3188C29.0808 15.1128 29.0808 14.8872 29.0063 14.6812ZM15.0001 21.0938C13.7078 21.0932 12.4497 20.6792 11.4095 19.9125L13.1251 18.2156C13.8365 18.6054 14.655 18.754 15.458 18.6391C16.261 18.5243 17.0051 18.1521 17.5787 17.5786C18.1522 17.005 18.5244 16.2609 18.6392 15.4579C18.7541 14.6549 18.6055 13.8364 18.2157 13.125L19.9126 11.4281C20.573 12.3352 20.9698 13.4073 21.059 14.5259C21.1481 15.6444 20.9262 16.7658 20.4179 17.7661C19.9095 18.7664 19.1343 19.6066 18.1782 20.1939C17.2221 20.7812 16.1222 21.0926 15.0001 21.0938ZM4.24696 20.4469L8.93446 15.7594C8.91043 15.507 8.90104 15.2535 8.90634 15C8.90882 13.3846 9.55163 11.8361 10.6939 10.6938C11.8362 9.55154 13.3847 8.90873 15.0001 8.90625C15.2477 8.90789 15.4949 8.92354 15.7407 8.95312L19.2845 5.41875C17.9052 4.9452 16.4583 4.69825 15.0001 4.6875C11.9443 4.80241 8.9892 5.81021 6.49997 7.58633C4.01073 9.36245 2.09649 11.829 0.993839 14.6812C0.919371 14.8872 0.919371 15.1128 0.993839 15.3188C1.71483 17.2332 2.82218 18.9788 4.24696 20.4469Z" fill="black"/>
</svg>
