<svg width="40" height="40" viewBox="0 0 40 40" fill="none" xmlns="http://www.w3.org/2000/svg">
<g clip-path="url(#clip0_4037_28940)">
<path d="M19.3988 0.171875C19.0707 0.351562 1.28164 17.5 1.04726 17.8594C0.680078 18.4141 0.922265 19.3203 1.53164 19.6641C1.81289 19.8281 1.93789 19.8438 3.18789 19.8438H4.53164V29.1797C4.53164 35.5312 4.55508 38.6328 4.61758 38.8984C4.71914 39.3828 4.93008 39.6641 5.34414 39.8516C5.64883 39.9844 5.96133 40 10.6098 40C14.6332 40 15.602 39.9766 15.8051 39.8906C16.1098 39.7656 16.4457 39.4141 16.5551 39.1172C16.6176 38.9688 16.641 37.0938 16.641 33.3906V27.8906H20.0004H23.3598V33.3906C23.3598 37.0938 23.3832 38.9688 23.4457 39.1172C23.5551 39.4141 23.891 39.7656 24.1957 39.8906C24.3988 39.9766 25.3676 40 29.391 40C34.0394 40 34.3519 39.9844 34.6566 39.8516C35.0707 39.6641 35.2816 39.3828 35.3832 38.8984C35.4457 38.6328 35.4691 35.5312 35.4691 29.1797V19.8438H36.8207C38.0629 19.8438 38.1879 19.8281 38.4691 19.6641C39.0785 19.3203 39.3207 18.4141 38.9535 17.8594C38.7191 17.5 20.9301 0.351562 20.6019 0.171875C20.4301 0.078125 20.1566 0 20.0004 0C19.8441 0 19.5707 0.078125 19.3988 0.171875ZM28.9066 9.9375L37.7504 18.4766L36.3988 18.5156C35.2269 18.5469 35.0004 18.5781 34.7738 18.7109C34.4301 18.9141 34.2269 19.1953 34.141 19.5781C34.0941 19.75 34.0629 23.9219 34.0629 29.2734V38.6719H29.3754H24.6879V33.1719C24.6879 29.4609 24.6644 27.5938 24.6019 27.4453C24.4848 27.1328 24.2269 26.875 23.8676 26.7109C23.5785 26.5781 23.2894 26.5625 20.0004 26.5625C16.7113 26.5625 16.4223 26.5781 16.1332 26.7109C15.7738 26.875 15.516 27.1328 15.3988 27.4453C15.3363 27.5938 15.3129 29.4609 15.3129 33.1719V38.6719H10.6254H5.93789V29.2734C5.93789 23.9219 5.90664 19.75 5.85976 19.5781C5.77383 19.1953 5.5707 18.9141 5.22695 18.7109C5.00039 18.5781 4.77383 18.5469 3.60976 18.5156L2.25039 18.4766L11.0941 9.9375C15.9613 5.25 19.9613 1.40625 20.0004 1.40625C20.0316 1.40625 24.0473 5.25 28.9066 9.9375Z" fill="black"/>
</g>
<defs>
<clipPath id="clip0_4037_28940">
<rect width="40" height="40" fill="white"/>
</clipPath>
</defs>
</svg>
