<svg width="40" height="40" viewBox="0 0 40 40" fill="none" xmlns="http://www.w3.org/2000/svg">
<path d="M34.9467 30.7466C34.9305 31.3219 34.7989 31.888 34.5597 32.4114C34.3204 32.9348 33.9784 33.4048 33.554 33.7935C33.1296 34.1821 32.6314 34.4815 32.089 34.6739C31.5466 34.8663 30.9711 34.9477 30.3967 34.9133C26.8083 34.9333 23.22 34.9133 19.6317 34.9133C19.4107 34.9133 19.1987 34.8255 19.0424 34.6692C18.8861 34.5129 18.7983 34.301 18.7983 34.0799C18.7983 33.8589 18.8861 33.647 19.0424 33.4907C19.1987 33.3344 19.4107 33.2466 19.6317 33.2466C23.2983 33.2466 26.965 33.2999 30.6317 33.2466C32.4767 33.2199 33.28 31.8333 33.28 30.1833V9.41161C33.2919 8.88725 33.144 8.37168 32.8558 7.93344C32.5676 7.49521 32.1528 7.15508 31.6667 6.95828C31.0914 6.80043 30.4925 6.74681 29.8983 6.79994H19.6317C19.4107 6.79994 19.1987 6.71214 19.0424 6.55586C18.8861 6.39958 18.7983 6.18762 18.7983 5.96661C18.7983 5.7456 18.8861 5.53363 19.0424 5.37735C19.1987 5.22107 19.4107 5.13328 19.6317 5.13328C23.3383 5.13328 27.0733 4.99161 30.7767 5.13328C31.3438 5.14762 31.9024 5.27461 32.42 5.50685C32.9376 5.73909 33.4038 6.07195 33.7915 6.48606C34.1793 6.90017 34.4808 7.38725 34.6785 7.91898C34.8763 8.4507 34.9663 9.01644 34.9433 9.58328L34.9467 30.7466Z" fill="black"/>
<path d="M5.29346 19.4385C5.15337 19.5755 5.07106 19.761 5.06346 19.9568C5.06568 19.9802 5.06235 20.004 5.05346 20.0285C5.04013 20.0652 5.05346 20.0735 5.06346 20.0968C5.07064 20.2932 5.15298 20.4794 5.29346 20.6168L11.4085 26.7318C11.5656 26.8836 11.7761 26.9676 11.9946 26.9657C12.2131 26.9638 12.4221 26.8762 12.5766 26.7217C12.7312 26.5672 12.8188 26.3581 12.8207 26.1397C12.8226 25.9212 12.7386 25.7107 12.5868 25.5535L7.89513 20.8602H25.7985C26.0195 20.8602 26.2314 20.7724 26.3877 20.6161C26.544 20.4598 26.6318 20.2478 26.6318 20.0268C26.6318 19.8058 26.544 19.5938 26.3877 19.4376C26.2314 19.2813 26.0195 19.1935 25.7985 19.1935H7.89513L12.5868 14.5002C12.7386 14.343 12.8226 14.1325 12.8207 13.914C12.8188 13.6955 12.7312 13.4865 12.5766 13.332C12.4221 13.1775 12.2131 13.0898 11.9946 13.0879C11.7761 13.086 11.5656 13.17 11.4085 13.3218L5.29346 19.4385Z" fill="black"/>
</svg>
