<svg width="34" height="34" viewBox="0 0 34 34" fill="none" xmlns="http://www.w3.org/2000/svg">
<g clip-path="url(#clip0_4883_26410)">
<path opacity="0.986" fill-rule="evenodd" clip-rule="evenodd" d="M4.22656 0.710939C12.7162 0.697915 21.2058 0.710939 29.6953 0.750001C31.5834 1.17969 32.7422 2.33854 33.1719 4.22656C33.1852 11.3512 33.2242 18.4735 33.2891 25.5938C33.2256 26.9585 33.1865 28.3257 33.1719 29.6953C32.7422 31.5834 31.5834 32.7422 29.6953 33.1719C21.2057 33.224 12.7162 33.224 4.22656 33.1719C2.33854 32.7422 1.17969 31.5834 0.750002 29.6953C0.697916 21.2057 0.697916 12.7162 0.750002 4.22656C1.19383 2.33746 2.35269 1.16559 4.22656 0.710939ZM5.00781 3.21094C12.9766 3.19792 20.9454 3.21094 28.9141 3.25C30.0053 3.37772 30.5913 3.9897 30.6719 5.08594C30.724 11.0234 30.724 16.9609 30.6719 22.8984C29.5202 21.9645 28.3613 21.0401 27.1953 20.125C25.9861 19.3781 24.7621 19.352 23.5234 20.0469C22.0773 21.0695 20.645 22.1111 19.2266 23.1719C19.0027 23.2857 18.7683 23.3117 18.5234 23.25C16.9349 21.7135 15.3463 20.1771 13.7578 18.6406C12.4373 17.8477 11.1352 17.8738 9.85156 18.7188C7.62813 20.5514 5.42758 22.4134 3.25 24.3047C3.19792 17.8984 3.19792 11.4922 3.25 5.08594C3.34478 3.98884 3.93072 3.36384 5.00781 3.21094ZM21.5703 9.92969C22.8159 9.8293 23.6102 10.3762 23.9531 11.5703C24.091 12.8183 23.5572 13.6126 22.3516 13.9531C21.1036 14.091 20.3093 13.5572 19.9688 12.3516C19.8401 11.097 20.3739 10.2897 21.5703 9.92969ZM11.5703 20.7109C11.8799 20.6788 12.1664 20.7439 12.4297 20.9063C13.8598 22.4145 15.318 23.8988 16.8047 25.3594C17.9847 26.1286 19.2087 26.2067 20.4766 25.5938C21.9572 24.5039 23.4155 23.3841 24.8516 22.2344C25.0492 22.1233 25.2576 22.0973 25.4766 22.1563C27.2533 23.4639 28.985 24.8311 30.6719 26.2578C30.7388 27.3024 30.7128 28.3441 30.5938 29.3828C30.2744 30.1703 29.6884 30.6 28.8359 30.6719C20.735 30.7488 12.636 30.7227 4.53906 30.5938C3.92709 30.3984 3.52344 29.9948 3.32813 29.3828C3.22243 28.8131 3.19639 28.2402 3.25 27.6641C6.03828 25.357 8.81172 23.0392 11.5703 20.7109Z" fill="black"/>
</g>
<defs>
<clipPath id="clip0_4883_26410">
<rect width="34" height="34" fill="white"/>
</clipPath>
</defs>
</svg>
