<svg width="18" height="19" viewBox="0 0 18 19" fill="none" xmlns="http://www.w3.org/2000/svg">
<path opacity="0.944" fill-rule="evenodd" clip-rule="evenodd" d="M8.39085 0.000372007C12.4506 -0.0297311 15.3646 1.76714 17.133 5.391C18.3999 8.69418 17.9781 11.7567 15.8674 14.5785C15.5777 14.8994 15.2887 15.2197 15.0002 15.5394C15.3894 16.3256 15.7722 17.1147 16.1487 17.9066C16.1572 18.3665 15.9306 18.5618 15.469 18.4926C14.094 18.1723 12.719 17.8519 11.344 17.5316C7.7857 18.3826 4.74665 17.492 2.22679 14.8597C0.192926 12.4268 -0.447696 9.66122 0.304915 6.56287C1.35932 3.21154 3.58588 1.09438 6.9846 0.211309C7.45785 0.124975 7.9266 0.0546626 8.39085 0.000372007ZM8.39085 0.984747C11.5608 0.917097 14.0061 2.19834 15.7268 4.8285C17.2024 7.45833 17.2493 10.1146 15.8674 12.7972C15.3323 13.692 14.676 14.4888 13.8987 15.1879C13.8674 15.3285 13.8674 15.4691 13.8987 15.6097C14.1721 16.1566 14.4456 16.7035 14.719 17.2504C14.7034 17.266 14.6877 17.2816 14.6721 17.2972C13.6274 17.0478 12.5805 16.8056 11.5315 16.5707C11.3909 16.5394 11.2502 16.5394 11.1096 16.5707C7.93813 17.3425 5.22721 16.5534 2.97679 14.2035C0.907394 11.6775 0.454268 8.88065 1.61741 5.81287C2.7254 3.40823 4.56135 1.86915 7.12523 1.19568C7.55132 1.1093 7.97319 1.03899 8.39085 0.984747Z" fill="#448D57"/>
</svg>
