<svg width="18" height="20" viewBox="0 0 18 20" fill="none" xmlns="http://www.w3.org/2000/svg">
<path opacity="0.944" fill-rule="evenodd" clip-rule="evenodd" d="M8.50804 0.788946C12.5677 0.758843 15.4818 2.55572 17.2502 6.17957C18.5171 9.48276 18.0952 12.5453 15.9846 15.3671C15.6949 15.6879 15.4059 16.0082 15.1174 16.328C15.5066 17.1142 15.8894 17.9033 16.2659 18.6952C16.2744 19.155 16.0478 19.3504 15.5862 19.2811C14.2112 18.9608 12.8361 18.6405 11.4612 18.3202C7.90288 19.1712 4.86384 18.2805 2.34398 15.6483C0.310113 13.2154 -0.330509 10.4498 0.422102 7.35145C1.4765 4.00012 3.70307 1.88295 7.10179 0.999884C7.57504 0.913549 8.04379 0.843237 8.50804 0.788946ZM8.50804 1.77332C11.678 1.70567 14.1233 2.98691 15.844 5.61707C17.3196 8.2469 17.3665 10.9032 15.9846 13.5858C15.4495 14.4805 14.7932 15.2774 14.0159 15.9764C13.9846 16.1171 13.9846 16.2577 14.0159 16.3983C14.2893 16.9452 14.5627 17.4921 14.8362 18.0389C14.8206 18.0546 14.8049 18.0702 14.7893 18.0858C13.7446 17.8364 12.6977 17.5942 11.6487 17.3593C11.508 17.328 11.3674 17.328 11.2268 17.3593C8.05532 18.1311 5.3444 17.342 3.09398 14.9921C1.02458 12.4661 0.571455 9.66923 1.7346 6.60145C2.84259 4.19681 4.67854 2.65772 7.24241 1.98426C7.66851 1.89788 8.09038 1.82756 8.50804 1.77332Z" fill="black"/>
</svg>
