<svg width="30" height="30" viewBox="0 0 30 30" fill="none" xmlns="http://www.w3.org/2000/svg">
<g clip-path="url(#clip0_4207_14465)">
<path d="M15 21.6345C15.262 21.6345 15.4815 21.546 15.6585 21.369C15.8345 21.192 15.9225 20.973 15.9225 20.712C15.9225 20.451 15.834 20.2315 15.657 20.0535C15.48 19.8755 15.261 19.787 15 19.788C14.739 19.789 14.52 19.8775 14.343 20.0535C14.166 20.2295 14.0775 20.449 14.0775 20.712C14.0775 20.975 14.166 21.194 14.343 21.369C14.52 21.544 14.739 21.6325 15 21.6345ZM14.25 17.193H15.75V8.076H14.25V17.193ZM10.0095 27L3 20.004V10.0095L9.996 3H19.9905L27 9.996V19.9905L20.004 27H10.0095ZM10.65 25.5H19.35L25.5 19.35V10.65L19.35 4.5H10.65L4.5 10.65V19.35L10.65 25.5Z" fill="black"/>
</g>
<defs>
<clipPath id="clip0_4207_14465">
<rect width="24" height="24" fill="white" transform="translate(3 3)"/>
</clipPath>
</defs>
</svg>
