<svg width="30" height="30" viewBox="0 0 30 30" fill="none" xmlns="http://www.w3.org/2000/svg">
<path d="M15 20.5288C15.2183 20.5288 15.4013 20.455 15.5488 20.3075C15.6954 20.16 15.7687 19.9775 15.7687 19.76C15.7687 19.5425 15.695 19.3596 15.5475 19.2113C15.4 19.0629 15.2175 18.9892 15 18.99C14.7825 18.9908 14.6 19.0646 14.4525 19.2113C14.305 19.3579 14.2313 19.5408 14.2313 19.76C14.2313 19.9792 14.305 20.1617 14.4525 20.3075C14.6 20.4533 14.7825 20.5271 15 20.5288ZM14.375 16.8275H15.625V9.23H14.375V16.8275ZM10.8413 25L5 19.17V10.8413L10.83 5H19.1587L25 10.83V19.1587L19.17 25H10.8413ZM11.375 23.75H18.625L23.75 18.625V11.375L18.625 6.25H11.375L6.25 11.375V18.625L11.375 23.75Z" fill="#EAB308"/>
</svg>
