<svg width="221" height="37" viewBox="0 0 221 37" fill="none" xmlns="http://www.w3.org/2000/svg">
<path d="M63.2299 11.6333C63.7883 11.809 64.2513 12.1098 64.6185 12.5355C64.9866 12.9617 65.1711 13.6442 65.1711 14.5838C65.1711 15.5234 64.8912 16.5516 64.3315 17.6678C63.7727 18.7832 62.9643 19.3406 61.9054 19.3406C61.3765 19.3406 60.8689 19.2232 60.3831 18.9883C59.8983 18.7534 59.2588 18.6359 58.4651 18.6359C57.671 18.6359 56.9285 18.9153 56.2369 19.4741C55.5452 20.032 55.1994 20.7069 55.1994 21.4993V30.7495C55.1994 31.4249 55.1771 31.9312 55.1335 32.2693C55.0894 32.6065 54.9499 32.9949 54.7146 33.4349C54.2734 34.1992 53.1263 34.5809 51.2724 34.5809C49.8606 34.5809 48.8464 34.3314 48.2296 33.8317C47.759 33.4215 47.4938 32.7902 47.4346 31.9383C47.4346 31.6442 47.4346 31.2184 47.4346 30.6605V15.2013C47.4346 14.5251 47.4564 14.0188 47.5005 13.6816C47.5442 13.3435 47.6699 12.9689 47.8766 12.5569C48.2875 11.7645 49.4346 11.3681 51.317 11.3681C53.0817 11.3681 54.1843 11.7058 54.6254 12.3807C54.9499 12.8519 55.1121 13.3363 55.1121 13.8346C55.2583 13.6295 55.4708 13.3804 55.7502 13.0872C56.0305 12.7931 56.6264 12.3963 57.5382 11.8967C58.4495 11.3975 59.2512 11.1475 59.9428 11.1475C60.6345 11.1475 61.2156 11.1844 61.6862 11.2578C62.1568 11.3316 62.6711 11.4567 63.2299 11.6333Z" fill="#448D57"/>
<path d="M67.5977 15.244C67.5977 14.5691 67.6195 14.0632 67.6636 13.726C67.7073 13.3879 67.833 12.9982 68.0397 12.5568C68.4506 11.7943 69.5977 11.4126 71.4801 11.4126C72.8919 11.4126 73.8919 11.6626 74.4801 12.1618C74.9802 12.5724 75.2453 13.2037 75.2752 14.0552C75.3037 14.3498 75.3179 14.7755 75.3179 15.333V30.7495C75.3179 31.4248 75.2957 31.9311 75.252 32.2692C75.2079 32.6065 75.0684 32.9948 74.8331 33.4348C74.4503 34.1992 73.3179 34.5809 71.4355 34.5809C69.5825 34.5809 68.4506 34.1849 68.0397 33.3921C67.833 32.9508 67.7073 32.5691 67.6636 32.2461C67.6195 31.9235 67.5977 31.4097 67.5977 30.705V15.244ZM74.8545 7.07396C74.6343 7.50016 74.2448 7.80136 73.6851 7.97798C73.1263 8.15372 72.3838 8.24136 71.4569 8.24136C70.5309 8.24136 69.7889 8.15372 69.2305 7.97798C68.6717 7.80136 68.2822 7.49305 68.0611 7.0526C67.8401 6.61127 67.7073 6.22243 67.6636 5.8852C67.6195 5.54708 67.5977 5.04079 67.5977 4.36544C67.5977 3.69053 67.6195 3.1838 67.6636 2.84568C67.7073 2.50756 67.833 2.1334 68.0397 1.72276C68.4506 0.929072 69.5977 0.532227 71.4801 0.532227C73.3326 0.532227 74.4503 0.929072 74.8331 1.72276C75.0684 2.16321 75.2079 2.55205 75.252 2.89017C75.2957 3.2274 75.3179 3.73369 75.3179 4.40993C75.3179 5.08528 75.2957 5.59157 75.252 5.92969C75.2079 6.26692 75.0755 6.64819 74.8545 7.07396Z" fill="#448D57"/>
<path d="M86.1288 22.9743C86.1288 24.2227 86.5406 25.1916 87.3641 25.8821C88.1877 26.5717 89.062 26.916 89.9881 26.916C90.915 26.916 91.7831 26.6451 92.5924 26.1028C93.4017 25.5596 94.0559 25.2877 94.555 25.2877C95.4378 25.2877 96.5114 26.0654 97.7761 27.6208C98.4522 28.4727 98.7904 29.2362 98.7904 29.9111C98.7904 31.0278 97.9816 32.0706 96.3643 33.0396C94.6874 34.2141 92.6285 34.8014 90.1877 34.8014C87.4519 34.8014 84.8195 33.8172 82.291 31.849C81.0846 30.9094 80.0989 29.6544 79.3337 28.0834C78.5694 26.513 78.1875 24.7806 78.1875 22.8871C78.1875 20.9927 78.5694 19.2745 79.3337 17.7334C80.0989 16.1914 81.0846 14.9502 82.291 14.0105C84.7317 12.0735 87.3347 11.1045 90.1004 11.1045C91.2172 11.1045 92.3054 11.2589 93.3643 11.5672C94.4231 11.8746 95.2025 12.1754 95.703 12.4694L96.4089 12.9108C96.9374 13.2631 97.3492 13.5421 97.6442 13.7472C98.408 14.3344 98.7904 15.0027 98.7904 15.751C98.7904 16.4997 98.482 17.3437 97.8652 18.2833C96.8064 19.8983 95.7912 20.7053 94.8206 20.7053C94.2618 20.7053 93.4677 20.3828 92.4373 19.7372C91.9084 19.2381 91.1512 18.988 90.1663 18.988C89.181 18.988 88.2617 19.3404 87.4087 20.0451C86.5553 20.7498 86.1288 21.7263 86.1288 22.9743Z" fill="#448D57"/>
<path d="M124.073 20.1999C124.073 22.0057 123.625 23.3417 122.728 24.2075C121.83 25.0737 120.837 25.5066 119.749 25.5066H109.292C109.292 26.3287 109.778 27.0192 110.749 27.578C111.719 28.1359 112.69 28.4144 113.66 28.4144C115.366 28.4144 116.705 28.2382 117.676 27.8859L118.161 27.7097C118.866 27.3872 119.455 27.2257 119.925 27.2257C120.867 27.2257 121.675 27.8859 122.351 29.2063C122.734 30 122.925 30.6758 122.925 31.2333C122.925 33.847 119.793 35.1537 113.528 35.1537C111.35 35.1537 109.416 34.7791 107.725 34.0308C106.034 33.2811 104.718 32.2899 103.777 31.0571C101.924 28.6787 100.998 26.0209 100.998 23.0846C100.998 19.3844 102.196 16.4263 104.593 14.2098C106.99 11.9925 109.983 10.8838 113.572 10.8838C117.66 10.8838 120.66 12.323 122.572 15.201C123.573 16.7279 124.073 18.3945 124.073 20.1999ZM114.763 21.499C115.881 21.499 116.44 21.0292 116.44 20.0895C116.44 19.4146 116.182 18.8719 115.667 18.4612C115.152 18.0497 114.417 17.8437 113.462 17.8437C112.506 17.8437 111.557 18.233 110.615 19.0111C109.674 19.7884 109.203 20.6176 109.203 21.499H114.763Z" fill="#448D57"/>
<path d="M140.529 11.4129C142.558 11.4129 143.75 11.9712 144.103 13.0874C144.28 13.6453 144.368 14.379 144.368 15.2888C144.368 16.199 144.273 16.9255 144.081 17.4688C143.89 18.0124 143.588 18.4013 143.176 18.6362C142.559 18.9885 141.663 19.1647 140.486 19.1647L137.662 18.9885V30.7925C137.662 31.9091 137.522 32.7389 137.242 33.2821C136.962 33.8258 136.536 34.1857 135.962 34.3623C135.389 34.538 134.646 34.6257 133.734 34.6257C132.822 34.6257 132.094 34.5305 131.55 34.3392C131.007 34.1483 130.618 33.84 130.382 33.4138C130.147 32.988 130.007 32.5987 129.962 32.2464C129.918 31.894 129.896 31.3806 129.896 30.7053V19.033H128.308C127.543 18.9738 127 18.7977 126.677 18.5045C126.117 17.947 125.837 16.8753 125.837 15.2888C125.837 12.8806 126.705 11.6762 128.441 11.6762H129.896V9.3432C129.896 7.08225 130.704 5.03396 132.322 3.19832C133.94 1.36313 136.279 0.445312 139.338 0.445312C140.014 0.445312 140.522 0.467557 140.86 0.511157C141.199 0.555201 141.589 0.694453 142.03 0.929358C142.823 1.31152 143.22 2.442 143.22 4.32123C143.22 5.73066 142.97 6.74413 142.47 7.36075C142.059 7.83056 141.412 8.09483 140.529 8.15267C140.265 8.15267 139.853 8.15267 139.294 8.15267C138.206 8.15267 137.662 8.52015 137.662 9.25422V11.6762L140.529 11.4129Z" fill="#448D57"/>
<path d="M146.795 15.244C146.795 14.5691 146.817 14.0632 146.861 13.726C146.905 13.3879 147.03 12.9982 147.237 12.5568C147.648 11.7943 148.795 11.4126 150.677 11.4126C152.089 11.4126 153.089 11.6626 153.677 12.1618C154.177 12.5724 154.443 13.2037 154.472 14.0552C154.501 14.3498 154.515 14.7755 154.515 15.333V30.7495C154.515 31.4248 154.493 31.9311 154.449 32.2692C154.405 32.6065 154.266 32.9948 154.03 33.4348C153.648 34.1992 152.515 34.5809 150.633 34.5809C148.78 34.5809 147.648 34.1849 147.237 33.3921C147.03 32.9508 146.905 32.5691 146.861 32.2461C146.817 31.9235 146.795 31.4097 146.795 30.705V15.244ZM154.052 7.07396C153.832 7.50016 153.442 7.80136 152.882 7.97798C152.324 8.15372 151.581 8.24136 150.654 8.24136C149.728 8.24136 148.986 8.15372 148.428 7.97798C147.869 7.80136 147.479 7.49305 147.258 7.0526C147.037 6.61127 146.905 6.22243 146.861 5.8852C146.817 5.54708 146.795 5.04079 146.795 4.36544C146.795 3.69053 146.817 3.1838 146.861 2.84568C146.905 2.50756 147.03 2.1334 147.237 1.72276C147.648 0.929072 148.795 0.532227 150.677 0.532227C152.53 0.532227 153.648 0.929072 154.03 1.72276C154.266 2.16321 154.405 2.55205 154.449 2.89017C154.493 3.2274 154.515 3.73369 154.515 4.40993C154.515 5.08528 154.493 5.59157 154.449 5.92969C154.405 6.26692 154.273 6.64819 154.052 7.07396Z" fill="#448D57"/>
<path d="M180.46 20.1999C180.46 22.0057 180.011 23.3417 179.114 24.2075C178.217 25.0737 177.224 25.5066 176.136 25.5066H165.679C165.679 26.3287 166.164 27.0192 167.135 27.578C168.106 28.1359 169.077 28.4144 170.046 28.4144C171.753 28.4144 173.091 28.2382 174.062 27.8859L174.547 27.7097C175.253 27.3872 175.841 27.2257 176.312 27.2257C177.253 27.2257 178.062 27.8859 178.738 29.2063C179.12 30 179.312 30.6758 179.312 31.2333C179.312 33.847 176.179 35.1537 169.914 35.1537C167.737 35.1537 165.803 34.7791 164.112 34.0308C162.421 33.2811 161.105 32.2899 160.164 31.0571C158.311 28.6787 157.385 26.0209 157.385 23.0846C157.385 19.3844 158.583 16.4263 160.98 14.2098C163.377 11.9925 166.37 10.8838 169.959 10.8838C174.047 10.8838 177.047 12.323 178.959 15.201C179.96 16.7279 180.46 18.3945 180.46 20.1999ZM171.15 21.499C172.268 21.499 172.827 21.0292 172.827 20.0895C172.827 19.4146 172.569 18.8719 172.053 18.4612C171.539 18.0497 170.804 17.8437 169.848 17.8437C168.893 17.8437 167.944 18.233 167.002 19.0111C166.061 19.7884 165.59 20.6176 165.59 21.499H171.15Z" fill="#448D57"/>
<path d="M183.327 4.32123C183.327 3.64633 183.349 3.14048 183.393 2.80325C183.437 2.46513 183.562 2.07541 183.769 1.63407C184.18 0.841714 185.327 0.445312 187.21 0.445312C189.004 0.445312 190.121 0.841714 190.563 1.63407C190.798 2.07541 190.937 2.47225 190.981 2.82461C191.025 3.17697 191.047 3.69082 191.047 4.36572V24.7597C191.047 25.8168 191.135 26.485 191.311 26.7635C191.488 27.0424 191.878 27.1817 192.481 27.1817C193.084 27.1817 193.489 27.2039 193.695 27.2475C193.901 27.2916 194.151 27.4162 194.445 27.6213C195.033 28.0034 195.327 29.0463 195.327 30.7498C195.327 32.5996 195.033 33.7297 194.445 34.1399C193.681 34.6688 191.857 34.7574 188.974 34.405C186.709 34.1109 185.239 33.3622 184.562 32.1592C183.739 30.7204 183.327 28.4301 183.327 25.2882V4.32123Z" fill="#448D57"/>
<path d="M213.35 1.69963C213.571 1.27387 213.961 0.973117 214.52 0.797384C215.08 0.620761 215.822 0.532227 216.748 0.532227C217.675 0.532227 218.417 0.620761 218.976 0.797384C219.536 0.973117 219.925 1.28143 220.146 1.72276C220.367 2.16321 220.499 2.55205 220.543 2.89017C220.587 3.2274 220.609 3.73369 220.609 4.40993V30.705C220.609 31.3803 220.587 31.8866 220.543 32.2247C220.499 32.562 220.359 32.9361 220.124 33.3476C219.683 34.1405 218.44 34.5364 216.395 34.5364C214.351 34.5364 213.211 33.817 212.976 32.3778C211.741 33.7872 210.021 34.4919 207.814 34.4919C205.167 34.4919 202.755 33.3401 200.578 31.036C198.402 28.731 197.314 26.0443 197.314 22.9763C197.314 19.9074 198.409 17.2131 200.6 14.8934C202.791 12.5729 205.196 11.4126 207.814 11.4126C209.991 11.4126 211.682 12.1471 212.889 13.6157V4.36544C212.889 3.69053 212.911 3.1838 212.955 2.84568C212.998 2.50756 213.13 2.12584 213.35 1.69963ZM206.181 25.6403C206.946 26.4331 207.873 26.8291 208.962 26.8291C210.05 26.8291 210.955 26.4331 211.675 25.6403C212.395 24.8466 212.755 23.9728 212.755 23.019C212.755 22.0642 212.409 21.1753 211.718 20.3532C211.027 19.531 210.094 19.1199 208.917 19.1199C207.741 19.1199 206.799 19.5239 206.094 20.3318C205.388 21.1397 205.035 22.0286 205.035 22.9976C205.035 23.9657 205.417 24.8466 206.181 25.6403Z" fill="#448D57"/>
<mask id="mask0_3918_26654" style="mask-type:luminance" maskUnits="userSpaceOnUse" x="1" y="3" width="39" height="34">
<path d="M1.08984 3.80762H39.3081V36.4949H1.08984V3.80762Z" fill="white"/>
</mask>
<g mask="url(#mask0_3918_26654)">
<mask id="mask1_3918_26654" style="mask-type:luminance" maskUnits="userSpaceOnUse" x="-5" y="-3" width="49" height="45">
<path d="M6.74688 -2.40234L43.3773 10.2109L32.48 41.7517L-4.15039 29.138L6.74688 -2.40234Z" fill="white"/>
</mask>
<g mask="url(#mask1_3918_26654)">
<mask id="mask2_3918_26654" style="mask-type:luminance" maskUnits="userSpaceOnUse" x="-5" y="-3" width="49" height="45">
<path d="M6.74688 -2.40234L43.3773 10.2109L32.48 41.7517L-4.15039 29.138L6.74688 -2.40234Z" fill="white"/>
</mask>
<g mask="url(#mask2_3918_26654)">
<path fill-rule="evenodd" clip-rule="evenodd" d="M18.5926 22.8542C12.0791 20.6115 5.89317 17.4959 2.98135 13.5123C3.00051 13.4474 2.91985 13.4376 2.89935 13.5523C2.14889 18.3056 2.75897 22.327 4.75812 25.8181C6.6463 29.1161 9.8117 32.4835 14.6251 34.1398C19.3511 35.7668 23.9626 35.1128 27.5322 33.6602C31.2604 32.1427 34.1713 29.3857 36.5488 25.2077C31.8941 26.3693 25.0914 25.092 18.5926 22.8542ZM36.0185 20.9905C36.8153 21.5693 37.0841 22.4053 37.2035 23.3129C38.5649 21.7873 37.2186 20.0749 36.158 19.3969C36.2494 19.861 36.2284 20.3793 36.0185 20.9905ZM3.62352 10.8616C3.39847 11.6509 3.88734 12.2791 4.29911 12.8721C4.77595 11.4128 5.78265 11.0414 6.93998 10.9777C7.1784 10.0733 7.92975 9.6653 8.14812 9.06825C6.80941 9.33786 4.10214 9.18526 3.62352 10.8616ZM29.1467 8.36577C28.7051 8.14821 28.1111 8.26433 27.6351 7.98227C27.3027 7.78562 27.2581 7.27978 27.0313 6.95367C26.0068 5.47973 24.3494 4.94275 22.6845 5.45705C22.2348 5.59585 21.8921 5.93931 21.5129 5.87391C20.8574 5.7618 20.7241 5.36228 20.086 5.24572C19.1506 5.07577 17.9491 5.67593 17.4553 6.1186C17.065 6.46874 16.9963 6.95056 16.5034 7.08981C15.8845 7.26465 15.2405 6.91941 14.7427 7.03064C14.0533 7.18457 13.093 7.90441 12.7012 8.37911C12.4151 8.72613 12.3915 9.23242 11.994 9.43485C11.539 9.66753 10.752 9.27513 10.2333 9.37568C9.43201 9.53139 8.85312 10.2281 8.37361 10.9924C8.16862 11.3181 8.07325 11.9174 7.68509 12.191C7.19935 12.5349 6.29068 12.1318 5.81652 12.6425C5.44575 13.0416 5.4863 13.5919 5.33122 14.0475C10.8509 19.4859 23.6622 24.0839 32.0942 24.2209C33.0764 24.2369 35.2302 24.313 35.6616 23.8081C36.5515 22.7666 34.8741 22.1268 34.7034 21.4261C34.5947 20.9781 34.8585 20.5123 34.9026 20.0594C34.9771 19.2808 34.8986 18.3901 34.5555 17.8878C34.2863 17.4937 33.1486 17.1596 32.9521 16.5834C32.8237 16.2088 33.0965 15.7977 33.0867 15.3991C33.0532 14.0133 32.293 12.7048 30.8286 12.0224C30.7724 10.6223 30.3977 8.98283 29.1467 8.36577ZM34.3518 15.9027C35.5604 16.8294 36.6389 17.5497 37.5787 18.6553C38.3546 19.5678 39.4558 20.9794 39.2824 22.2509C39.1853 22.9636 38.7775 23.6083 38.4214 24.3477C37.4071 26.4503 36.4388 28.3233 35.1696 29.7932C33.4588 31.7766 31.4859 33.1802 29.4507 34.2528C25.291 36.4417 19.9982 37.3582 14.2026 35.3624C8.33841 33.343 4.7911 29.3599 2.88197 25.104C1.23711 21.439 0.39663 17.2089 1.95593 11.7229C2.18187 10.9279 2.37483 10.0234 2.71575 9.52294C3.12173 8.92767 4.16274 8.37466 4.83967 8.13398C6.70424 7.47153 9.1722 7.63925 11.3968 7.79319C12.7275 6.72766 13.9147 5.36807 15.9442 5.73466C17.0235 4.90493 18.1795 3.71083 19.9973 3.91638C20.4946 3.97243 20.9906 4.32434 21.5486 4.38174C22.1484 4.44447 23.2313 3.87856 23.9301 3.83407C26.0607 3.69971 27.6721 5.304 28.5286 6.7855C31.247 7.51335 31.8366 9.2778 32.0657 11.2175C33.8567 12.2791 34.305 13.9932 34.3518 15.9027Z" fill="#448D57"/>
</g>
</g>
</g>
<mask id="mask3_3918_26654" style="mask-type:luminance" maskUnits="userSpaceOnUse" x="5" y="5" width="31" height="20">
<path d="M5.31055 5.1748H35.9992V24.3088H5.31055V5.1748Z" fill="white"/>
</mask>
<g mask="url(#mask3_3918_26654)">
<mask id="mask4_3918_26654" style="mask-type:luminance" maskUnits="userSpaceOnUse" x="-5" y="-3" width="49" height="45">
<path d="M6.74688 -2.40137L43.3773 10.2118L32.48 41.7526L-4.15039 29.139L6.74688 -2.40137Z" fill="white"/>
</mask>
<g mask="url(#mask4_3918_26654)">
<mask id="mask5_3918_26654" style="mask-type:luminance" maskUnits="userSpaceOnUse" x="-5" y="-3" width="49" height="45">
<path d="M6.74688 -2.40137L43.3773 10.2118L32.48 41.7526L-4.15039 29.139L6.74688 -2.40137Z" fill="white"/>
</mask>
<g mask="url(#mask5_3918_26654)">
<path fill-rule="evenodd" clip-rule="evenodd" d="M30.8284 12.0239C32.2933 12.7064 33.0535 14.0148 33.0865 15.4007C33.0963 15.7993 32.8236 16.2104 32.9519 16.585C33.1489 17.1611 34.2862 17.4952 34.5553 17.8894C34.8989 18.3917 34.9769 19.2828 34.9025 20.0609C34.8588 20.5138 34.5945 20.9797 34.7037 21.4277C34.874 22.1284 36.5514 22.7681 35.6614 23.8096C35.2305 24.3146 33.0767 24.2389 32.0941 24.2225C23.6621 24.0855 10.8512 19.4875 5.33105 14.0491C5.48614 13.5935 5.44558 13.0432 5.81636 12.6441C6.29052 12.1334 7.19918 12.5364 7.68493 12.1925C8.07309 11.9189 8.16845 11.3197 8.37345 10.994C8.85296 10.2297 9.43185 9.53296 10.2331 9.37725C10.7518 9.2767 11.5388 9.6691 11.9938 9.43642C12.3914 9.23399 12.415 8.7277 12.7011 8.38068C13.0923 7.90598 14.0531 7.18614 14.7426 7.03221C15.2403 6.92099 15.8843 7.26622 16.5033 7.09138C16.9962 6.95213 17.0648 6.47031 17.4552 6.12018C17.9489 5.67751 19.1504 5.07734 20.0858 5.24729C20.724 5.36385 20.8572 5.76337 21.5127 5.87548C21.892 5.94088 22.2347 5.59742 22.6843 5.45862C24.3492 4.94432 26.0066 5.48131 27.0311 6.95524C27.2579 7.28135 27.3025 7.78719 27.635 7.98384C28.1109 8.2659 28.7049 8.14978 29.1466 8.36734C30.3975 8.98441 30.7727 10.6238 30.8284 12.0239Z" fill="#F9FBEF"/>
</g>
</g>
</g>
<mask id="mask6_3918_26654" style="mask-type:luminance" maskUnits="userSpaceOnUse" x="3" y="9" width="6" height="4">
<path d="M3.48535 9.04688H8.1628V12.9192H3.48535V9.04688Z" fill="white"/>
</mask>
<g mask="url(#mask6_3918_26654)">
<mask id="mask7_3918_26654" style="mask-type:luminance" maskUnits="userSpaceOnUse" x="-5" y="-3" width="49" height="45">
<path d="M6.74688 -2.40234L43.3773 10.2109L32.48 41.7517L-4.15039 29.138L6.74688 -2.40234Z" fill="white"/>
</mask>
<g mask="url(#mask7_3918_26654)">
<mask id="mask8_3918_26654" style="mask-type:luminance" maskUnits="userSpaceOnUse" x="-5" y="-3" width="49" height="45">
<path d="M6.74688 -2.40234L43.3773 10.2109L32.48 41.7517L-4.15039 29.138L6.74688 -2.40234Z" fill="white"/>
</mask>
<g mask="url(#mask8_3918_26654)">
<path fill-rule="evenodd" clip-rule="evenodd" d="M8.14834 9.06836C7.92997 9.66496 7.17862 10.0734 6.94065 10.9778C5.78287 11.0415 4.77617 11.413 4.29933 12.8722C3.888 12.2787 3.39914 11.651 3.62418 10.8617C4.1028 9.18537 6.81008 9.33797 8.14834 9.06836Z" fill="#FFD700"/>
</g>
</g>
</g>
<mask id="mask9_3918_26654" style="mask-type:luminance" maskUnits="userSpaceOnUse" x="35" y="19" width="3" height="5">
<path d="M35.999 19.2969H37.8244V23.397H35.999V19.2969Z" fill="white"/>
</mask>
<g mask="url(#mask9_3918_26654)">
<mask id="mask10_3918_26654" style="mask-type:luminance" maskUnits="userSpaceOnUse" x="-5" y="-3" width="49" height="45">
<path d="M6.7459 -2.40234L43.3763 10.2109L32.479 41.7517L-4.15137 29.138L6.7459 -2.40234Z" fill="white"/>
</mask>
<g mask="url(#mask10_3918_26654)">
<mask id="mask11_3918_26654" style="mask-type:luminance" maskUnits="userSpaceOnUse" x="-5" y="-3" width="49" height="45">
<path d="M6.7459 -2.40234L43.3763 10.2109L32.479 41.7517L-4.15137 29.138L6.7459 -2.40234Z" fill="white"/>
</mask>
<g mask="url(#mask11_3918_26654)">
<path fill-rule="evenodd" clip-rule="evenodd" d="M36.1571 19.3975C37.2177 20.0755 38.564 21.7879 37.2025 23.3134C37.0831 22.4058 36.8144 21.5699 36.0176 20.9911C36.2275 20.3798 36.2484 19.8615 36.1571 19.3975Z" fill="#FFD700"/>
</g>
</g>
</g>
<mask id="mask12_3918_26654" style="mask-type:luminance" maskUnits="userSpaceOnUse" x="2" y="13" width="35" height="23">
<path d="M2.57227 13.375H36.5694V35.1286H2.57227V13.375Z" fill="white"/>
</mask>
<g mask="url(#mask12_3918_26654)">
<mask id="mask13_3918_26654" style="mask-type:luminance" maskUnits="userSpaceOnUse" x="-5" y="-3" width="49" height="45">
<path d="M6.7459 -2.40137L43.3763 10.2118L32.479 41.7526L-4.15137 29.139L6.7459 -2.40137Z" fill="white"/>
</mask>
<g mask="url(#mask13_3918_26654)">
<mask id="mask14_3918_26654" style="mask-type:luminance" maskUnits="userSpaceOnUse" x="-5" y="-3" width="49" height="45">
<path d="M6.7459 -2.40137L43.3763 10.2118L32.479 41.7526L-4.15137 29.139L6.7459 -2.40137Z" fill="white"/>
</mask>
<g mask="url(#mask14_3918_26654)">
<path fill-rule="evenodd" clip-rule="evenodd" d="M36.5482 25.2091C34.1703 29.3871 31.2598 32.1441 27.5311 33.6616C23.962 35.1142 19.3505 35.7682 14.6245 34.1408C9.81108 32.4849 6.64569 29.1175 4.75706 25.8195C2.75836 22.3284 2.14828 18.307 2.89874 13.5537C2.91924 13.4389 2.9999 13.4487 2.98074 13.5137C5.89211 17.4973 12.0785 20.6129 18.592 22.8556C25.0908 25.0934 31.8935 26.3707 36.5482 25.2091Z" fill="#FFD700"/>
</g>
</g>
</g>
</svg>
