<svg width="40" height="40" viewBox="0 0 40 40" fill="none" xmlns="http://www.w3.org/2000/svg">
<path d="M19.2424 2.85875C19.0237 2.97594 8.95338 11.1556 7.56275 12.3509C6.91432 12.8978 6.69557 13.2963 6.69557 13.89C6.69557 14.8588 7.46119 15.6244 8.43775 15.6244C8.92994 15.6244 9.22682 15.4994 9.72682 15.1088C10.2659 14.6791 10.2346 14.64 10.2346 15.7572V16.7728L6.42994 16.7963C1.79713 16.8275 2.19557 16.7338 0.992443 18.1322C0.195568 19.0697 0.0627558 19.3275 0.0158808 20.0697C-0.0388067 20.9916 0.273693 21.4681 0.937756 21.4681H1.17213V28.3509C1.17213 35.8978 1.14869 35.5775 1.63307 35.8666C1.84401 35.9916 3.03932 35.9994 20.0003 35.9994C40.0081 35.9994 38.4456 36.0384 38.7034 35.4994C38.8128 35.265 38.8284 34.8509 38.8284 32.3119C38.8284 29.4759 38.8206 29.3822 38.6721 29.2181C38.4534 28.9837 38.0315 28.9837 37.8128 29.2181C37.6643 29.3744 37.6565 29.4837 37.6565 30.9369V32.4837H33.7112H29.7659V26.9759V21.4681H33.7112H37.6565V24.265C37.6565 26.9759 37.6643 27.0697 37.8128 27.2338C38.0315 27.4681 38.4534 27.4681 38.6721 27.2338C38.8206 27.0697 38.8284 26.9759 38.8284 24.265V21.4681H39.0628C39.7268 21.4681 40.0393 20.9916 39.9846 20.0697C39.9378 19.3275 39.8049 19.0697 39.0081 18.1322C37.8049 16.7259 38.1956 16.8275 33.5784 16.7963L29.7659 16.7728V15.7572C29.7659 15.2025 29.7893 14.7494 29.8128 14.7494C29.8362 14.7494 30.0159 14.8822 30.219 15.0541C30.7581 15.4994 31.0237 15.6088 31.5628 15.6088C33.1878 15.6088 33.9143 13.7181 32.719 12.5853C32.1331 12.0306 21.0315 3.00719 20.7659 2.86657C20.3909 2.67125 19.594 2.67125 19.2424 2.85875ZM26.1799 8.72594C29.6174 11.5384 32.0784 13.6088 32.1174 13.7181C32.2737 14.1166 31.7893 14.6009 31.3909 14.4447C31.2971 14.4056 28.7424 12.3431 25.719 9.87438C21.3049 6.25719 20.1878 5.37438 20.0081 5.37438C19.8284 5.37438 18.7034 6.25719 14.2893 9.87438C11.2659 12.3431 8.70338 14.4056 8.60963 14.4447C8.18775 14.6088 7.70338 14.0931 7.9065 13.6869C7.96119 13.5697 10.6487 11.3275 13.8674 8.68688C19.4768 4.10094 19.7424 3.89 20.0159 3.91344C20.2815 3.92907 20.9534 4.4525 26.1799 8.72594ZM24.2737 10.2025L28.5549 13.6947L28.5784 24.265L28.594 34.8275H27.4221H26.2503V34.2259C26.2503 33.3197 25.9143 32.7572 25.2893 32.6009L25.0784 32.5462V29.6791C25.0784 26.5228 25.0549 26.3119 24.594 25.5931C24.1331 24.8666 23.4143 24.4134 22.5237 24.2806C21.8362 24.1791 18.1643 24.1791 17.4768 24.2806C16.5862 24.4134 15.8674 24.8666 15.4065 25.5931C14.9456 26.3119 14.9221 26.5228 14.9221 29.6791V32.5462L14.7112 32.6009C14.0862 32.7572 13.7503 33.3197 13.7503 34.2259V34.8275H12.5784H11.4065V24.2806V13.7338L12.1721 13.1088C12.5862 12.765 14.5159 11.1869 16.4456 9.60094C18.3831 8.015 19.969 6.71032 19.9768 6.71032C19.9846 6.7025 21.9221 8.27282 24.2737 10.2025ZM10.2346 19.1244V20.2963H8.56275C7.594 20.2963 6.79713 20.3275 6.67213 20.3744C6.24244 20.5384 6.11744 20.9838 6.4065 21.2963C6.56275 21.4603 6.61744 21.4681 8.39869 21.4681H10.2346V26.9759V32.4837H6.28932H2.34401V26.9759V21.4681H3.35963C4.29713 21.4681 4.38307 21.4525 4.53151 21.2963C4.82057 20.9838 4.69557 20.5384 4.26588 20.3744C4.14869 20.3353 3.41432 20.2963 2.60182 20.2963H1.14869L1.19557 19.9838C1.25807 19.4759 2.42213 18.14 2.89088 18.0306C3.03932 17.9994 4.75807 17.9681 6.70338 17.9603L10.2346 17.9525V19.1244ZM37.0706 18.0306C37.2971 18.0775 37.4924 18.2103 37.7737 18.515C38.5315 19.3275 38.7659 19.6556 38.8049 19.9838L38.8518 20.2963H34.3049H29.7659V19.1244V17.9525H33.2659C35.1878 17.9525 36.8987 17.9916 37.0706 18.0306ZM19.3753 28.9291V32.4837H17.7346H16.094V29.64V26.7963L16.3128 26.3822C16.7112 25.6166 17.219 25.3978 18.6174 25.3822L19.3753 25.3744V28.9291ZM22.4299 25.4525C23.0003 25.5619 23.4221 25.8666 23.6878 26.3822L23.9065 26.7963V29.64V32.4837H22.2659H20.6253V28.9291V25.3744H21.3206C21.6956 25.3744 22.2034 25.4134 22.4299 25.4525ZM10.2346 34.2416V34.8275H6.28932H2.34401V34.2416V33.6556H6.28932H10.2346V34.2416ZM24.9299 33.7337C25.0549 33.8041 25.0784 33.9056 25.0784 34.3197V34.8275H20.0003H14.9221V34.3197C14.9221 33.9291 14.9534 33.8041 15.0628 33.7416C15.2503 33.6322 24.719 33.6244 24.9299 33.7337ZM37.6565 34.2416V34.8275H33.7112H29.7659V34.2416V33.6556H33.7112H37.6565V34.2416Z" fill="black"/>
<path d="M18.8281 10.3666C17.2422 10.8744 16.0938 12.4291 16.0938 14.0854C16.0938 15.7573 17.2891 17.3588 18.8984 17.8276C19.5078 18.0073 20.5625 17.9916 21.1875 17.7963C22.125 17.5073 23.0391 16.7104 23.5078 15.7885C24.5469 13.7182 23.4062 11.0619 21.1797 10.3744C20.5391 10.1713 19.4375 10.1713 18.8281 10.3666ZM21.2109 11.6401C21.6953 11.8901 22.2969 12.5151 22.5156 13.0073C22.6484 13.2963 22.6875 13.5385 22.6875 14.0854C22.6875 14.6948 22.6641 14.8432 22.4766 15.226C22.1875 15.8198 21.5703 16.3979 20.9766 16.6166C20.5859 16.7651 20.3984 16.7885 19.8437 16.7651C19.0312 16.726 18.5703 16.5151 18.0234 15.9291C17.4687 15.3354 17.3125 14.937 17.3125 14.0854C17.3125 13.2338 17.4687 12.8354 18.0234 12.2416C18.6484 11.5776 19.125 11.3823 20.1172 11.4135C20.6953 11.4369 20.8906 11.476 21.2109 11.6401Z" fill="black"/>
<path d="M19.6641 12.3584C19.4766 12.4991 19.375 12.8897 19.375 13.46C19.375 14.2491 19.4609 14.4209 20.1406 14.9209C20.8125 15.4366 21.0703 15.4834 21.3672 15.1787C21.6953 14.8584 21.5938 14.5537 21.0078 14.1006C20.6406 13.8116 20.625 13.7881 20.625 13.3975C20.625 12.6319 20.4219 12.2569 20 12.2569C19.8906 12.2569 19.7422 12.3037 19.6641 12.3584Z" fill="black"/>
<path d="M15.5159 19.5931C14.7659 19.7259 14.0393 20.39 13.8284 21.14C13.7112 21.5619 13.7346 22.2259 13.8674 22.515C14.1252 23.054 13.8284 23.0306 20.0002 23.0306C26.1643 23.0306 25.8752 23.054 26.133 22.515C26.2346 22.2962 26.258 22.0931 26.2346 21.6712C26.1721 20.7728 25.7737 20.14 25.0159 19.7728L24.5705 19.554L20.2346 19.5384C17.8518 19.5384 15.7268 19.5619 15.5159 19.5931ZM24.5784 20.8587C24.8284 20.9994 25.0784 21.4134 25.0784 21.6947V21.8587H20.0002C15.0315 21.8587 14.9221 21.8587 14.9221 21.7103C14.9221 21.304 15.2424 20.89 15.6643 20.765C15.7893 20.7337 17.7971 20.7025 20.1174 20.7103C23.9299 20.7259 24.3596 20.7415 24.5784 20.8587Z" fill="black"/>
<path d="M4.28906 23.8823C3.53125 24.1245 3.51562 24.187 3.51562 27.0151C3.51562 29.6011 3.53906 29.7495 3.97656 30.0073C4.17187 30.1245 4.46094 30.1401 6.28906 30.1401C8.60156 30.1401 8.71094 30.1167 8.9375 29.6401C9.04687 29.4136 9.0625 29.0386 9.0625 27.0151C9.0625 23.6558 9.23437 23.8589 6.40625 23.8354C5.35156 23.8276 4.39844 23.8511 4.28906 23.8823ZM7.89062 26.9761V28.9683H6.28906H4.6875V26.9761V24.9839H6.28906H7.89062V26.9761Z" fill="black"/>
<path d="M31.7109 23.8823C30.9531 24.1245 30.9375 24.187 30.9375 27.0151C30.9375 29.6011 30.9609 29.7495 31.3984 30.0073C31.5937 30.1245 31.8828 30.1401 33.7109 30.1401C36.0234 30.1401 36.1328 30.1167 36.3594 29.6401C36.4687 29.4136 36.4844 29.0386 36.4844 27.0151C36.4844 23.6558 36.6562 23.8589 33.8281 23.8354C32.7734 23.8276 31.8203 23.8511 31.7109 23.8823ZM35.3125 26.9761V28.9683H33.7109H32.1094V26.9761V24.9839H33.7109H35.3125V26.9761Z" fill="black"/>
</svg>
