<svg width="40" height="40" viewBox="0 0 40 40" fill="none" xmlns="http://www.w3.org/2000/svg">
<g clip-path="url(#clip0_4255_21557)">
<path d="M20.1113 12.2227C15.7779 12.2227 12.3335 15.6671 12.3335 20.0004C12.3335 24.3338 15.7779 27.7782 20.1113 27.7782C24.4446 27.7782 27.8891 24.3338 27.8891 20.0004C27.8891 15.6671 24.4446 12.2227 20.1113 12.2227ZM20.1113 25.556C17.0002 25.556 14.5557 23.1115 14.5557 20.0004C14.5557 16.8893 17.0002 14.4449 20.1113 14.4449C23.2224 14.4449 25.6668 16.8893 25.6668 20.0004C25.6668 23.1115 23.2224 25.556 20.1113 25.556Z" fill="black"/>
<path d="M36.4444 16.3338L33.3333 15.3338L32.6666 13.6671L34.2222 10.7782C34.5555 10.1115 34.4444 9.22266 33.8888 8.6671L31.2222 6.00043C30.6666 5.44488 29.7777 5.33377 29.1111 5.6671L26.2222 7.22266L24.5555 6.55599L23.5555 3.44488C23.3333 2.77821 22.6666 2.22266 21.8888 2.22266H18.1111C17.3333 2.22266 16.6666 2.77821 16.5555 3.55599L15.5555 6.6671C14.8888 6.77821 14.3333 7.00043 13.7777 7.33377L10.8888 5.77821C10.2222 5.44488 9.33328 5.55599 8.77772 6.11155L6.11106 8.77821C5.5555 9.33377 5.44439 10.2227 5.77772 10.8893L7.22217 13.6671C6.99995 14.2227 6.77772 14.8893 6.5555 15.4449L3.44439 16.4449C2.77772 16.6671 2.22217 17.3338 2.22217 18.1115V21.8893C2.22217 22.6671 2.77772 23.3338 3.5555 23.556L6.66661 24.556L7.33328 26.2227L5.77772 29.1115C5.44439 29.7782 5.5555 30.6671 6.11106 31.2227L8.77772 33.8893C9.33328 34.4449 10.2222 34.556 10.8888 34.2227L13.7777 32.6671L15.4444 33.3338L16.4444 36.556C16.6666 37.2227 17.3333 37.7782 18.1111 37.7782H21.8888C22.6666 37.7782 23.3333 37.2227 23.5555 36.556L24.5555 33.3338L26.2222 32.6671L29.1111 34.2227C29.7777 34.556 30.6666 34.4449 31.2222 33.8893L33.8888 31.2227C34.4444 30.6671 34.5555 29.7782 34.2222 29.1115L32.6666 26.2227L33.3333 24.556L36.5555 23.556C37.2222 23.3338 37.7777 22.6671 37.7777 21.8893V18.1115C37.7777 17.3338 37.2222 16.556 36.4444 16.3338ZM35.5555 21.556L31.5555 22.7782L31.4444 23.3338L30.4444 25.6671L30.1111 26.2227L32.1111 29.8893L29.8888 32.1115L26.2222 30.1115L25.6666 30.4449C24.8888 30.8893 24.1111 31.2227 23.3333 31.4449L22.7777 31.556L21.5555 35.556H18.4444L17.2222 31.556L16.6666 31.4449L14.3333 30.4449L13.7777 30.1115L10.1111 32.1115L7.88883 29.8893L9.88883 26.2227L9.5555 25.6671C9.11106 24.8893 8.77772 24.1115 8.5555 23.3338L8.44439 22.7782L4.44439 21.556V18.4449L8.22217 17.3338L8.44439 16.7782C8.66661 15.8893 8.99995 15.1115 9.44439 14.3338L9.77772 13.7782L7.88883 10.1115L10.1111 7.88932L13.6666 9.88932L14.2222 9.55599C14.9999 9.11155 15.7777 8.77821 16.6666 8.55599L17.2222 8.33377L18.4444 4.44488H21.5555L22.7777 8.33377L23.3333 8.55599C24.1111 8.77821 24.8888 9.11155 25.6666 9.55599L26.2222 9.88932L29.8888 7.88932L32.1111 10.1115L30.1111 13.7782L30.4444 14.3338C30.8888 15.1115 31.2222 15.8893 31.4444 16.6671L31.5555 17.2227L35.5555 18.4449V21.556Z" fill="black"/>
</g>
<defs>
<clipPath id="clip0_4255_21557">
<rect width="40" height="40" fill="white"/>
</clipPath>
</defs>
</svg>
