<svg width="25" height="24" viewBox="0 0 25 24" fill="none" xmlns="http://www.w3.org/2000/svg">
<path opacity="0.962" fill-rule="evenodd" clip-rule="evenodd" d="M12.9336 -0.0234375C12.9649 -0.0234375 12.9961 -0.0234375 13.0273 -0.0234375C16.747 3.03977 20.4813 6.08663 24.2305 9.11719C24.2305 9.14845 24.2305 9.17967 24.2305 9.21094C20.4667 12.2635 16.709 15.326 12.957 18.3984C12.9336 16.5079 12.9258 14.6173 12.9336 12.7266C8.44245 13.1231 4.98153 15.2012 2.55078 18.9609C2.3789 19.2735 2.20703 19.5859 2.03516 19.8984C1.44852 21.259 0.862588 22.6184 0.277344 23.9766C0.261719 23.9766 0.246094 23.9766 0.230469 23.9766C0.230469 22.0078 0.230469 20.0391 0.230469 18.0703C0.69953 13.5132 2.85578 10.0054 6.69922 7.54688C8.61795 6.39909 10.6961 5.76628 12.9336 5.64844C12.9336 3.75781 12.9336 1.86719 12.9336 -0.0234375ZM14.3867 3.02344C16.9151 5.05148 19.4307 7.09833 21.9336 9.16406C19.4326 11.2198 16.9248 13.2667 14.4102 15.3047C14.3867 13.9454 14.3789 12.586 14.3867 11.2266C9.09903 11.199 4.8959 13.2537 1.77734 17.3906C2.44958 13.424 4.52771 10.4552 8.01172 8.48438C10.0091 7.44891 12.1341 6.97237 14.3867 7.05469C14.3867 5.71092 14.3867 4.36719 14.3867 3.02344Z" fill="black"/>
</svg>
