<svg width="24" height="24" viewBox="0 0 24 24" fill="none" xmlns="http://www.w3.org/2000/svg">
<path opacity="0.962" fill-rule="evenodd" clip-rule="evenodd" d="M12.6797 -0.0234375C12.711 -0.0234375 12.7422 -0.0234375 12.7734 -0.0234375C16.4931 3.03977 20.2274 6.08662 23.9766 9.11719C23.9766 9.14845 23.9766 9.17967 23.9766 9.21094C20.2128 12.2635 16.455 15.326 12.7031 18.3984C12.6797 16.5079 12.6719 14.6173 12.6797 12.7266C8.18855 13.1231 4.72762 15.2012 2.29688 18.9609C2.125 19.2735 1.95313 19.5859 1.78125 19.8984C1.19462 21.259 0.608681 22.6184 0.0234375 23.9766C0.00781252 23.9766 -0.00781252 23.9766 -0.0234375 23.9766C-0.0234375 22.0078 -0.0234375 20.0391 -0.0234375 18.0703C0.445624 13.5132 2.60187 10.0054 6.44531 7.54688C8.36405 6.39909 10.4422 5.76628 12.6797 5.64844C12.6797 3.75781 12.6797 1.86719 12.6797 -0.0234375ZM14.1328 3.02344C16.6612 5.05148 19.1768 7.09833 21.6797 9.16406C19.1787 11.2198 16.6709 13.2667 14.1562 15.3047C14.1328 13.9454 14.125 12.586 14.1328 11.2266C8.84512 11.199 4.642 13.2537 1.52344 17.3906C2.19568 13.424 4.2738 10.4552 7.75781 8.48438C9.75516 7.44891 11.8802 6.97237 14.1328 7.05469C14.1328 5.71092 14.1328 4.36719 14.1328 3.02344Z" fill="#448D57"/>
</svg>
