<svg width="30" height="30" viewBox="0 0 30 30" fill="none" xmlns="http://www.w3.org/2000/svg">
<path d="M15 18.75C17.0711 18.75 18.75 17.0711 18.75 15C18.75 12.9289 17.0711 11.25 15 11.25C12.9289 11.25 11.25 12.9289 11.25 15C11.25 17.0711 12.9289 18.75 15 18.75Z" fill="black"/>
<path d="M29.0063 14.6812C27.9037 11.829 25.9894 9.36245 23.5002 7.58633C21.011 5.81021 18.0559 4.80241 15.0001 4.6875C11.9443 4.80241 8.9892 5.81021 6.49997 7.58633C4.01073 9.36245 2.09649 11.829 0.993839 14.6812C0.919371 14.8872 0.919371 15.1128 0.993839 15.3188C2.09649 18.171 4.01073 20.6375 6.49997 22.4137C8.9892 24.1898 11.9443 25.1976 15.0001 25.3125C18.0559 25.1976 21.011 24.1898 23.5002 22.4137C25.9894 20.6375 27.9037 18.171 29.0063 15.3188C29.0808 15.1128 29.0808 14.8872 29.0063 14.6812ZM15.0001 21.0938C13.7949 21.0938 12.6167 20.7364 11.6146 20.0668C10.6125 19.3972 9.83142 18.4455 9.3702 17.332C8.90898 16.2185 8.7883 14.9932 9.02343 13.8112C9.25856 12.6291 9.83893 11.5433 10.6912 10.6911C11.5434 9.83884 12.6292 9.25847 13.8113 9.02334C14.9933 8.78821 16.2186 8.90889 17.3321 9.37011C18.4456 9.83133 19.3973 10.6124 20.0669 11.6145C20.7364 12.6166 21.0938 13.7948 21.0938 15C21.0914 16.6154 20.4485 18.1639 19.3063 19.3062C18.164 20.4485 16.6155 21.0913 15.0001 21.0938Z" fill="black"/>
</svg>
