<svg width="40" height="40" viewBox="0 0 40 40" fill="none" xmlns="http://www.w3.org/2000/svg">
<path opacity="0.959" fill-rule="evenodd" clip-rule="evenodd" d="M15.7891 6.60156C18.9663 6.58854 22.1434 6.60156 25.3203 6.64063C28.9797 7.25313 31.1802 9.37555 31.9219 13.0078C31.974 18.1901 31.974 23.3724 31.9219 28.5547C31.4552 31.2605 29.9838 33.2006 27.5078 34.375C26.881 34.6424 26.2299 34.8247 25.5547 34.9219C20.3724 34.974 15.1901 34.974 10.0078 34.9219C6.37539 34.18 4.25298 31.9795 3.64063 28.3203C3.58854 25.1432 3.58854 21.9662 3.64063 18.7891C7.65375 14.6848 11.7032 10.6223 15.7891 6.60156ZM16.9609 8.32031C19.828 8.28484 22.6925 8.32391 25.5547 8.4375C28.1789 9.08258 29.7284 10.7362 30.2031 13.3984C30.2552 18.3203 30.2552 23.2422 30.2031 28.1641C29.6788 30.954 28.0252 32.6337 25.2422 33.2031C20.2943 33.2552 15.3463 33.2552 10.3984 33.2031C7.50172 32.6502 5.82203 30.9184 5.35938 28.0078C5.32031 25.3256 5.30727 22.6434 5.32031 19.9609C7.22438 19.9953 9.12539 19.9563 11.0234 19.8438C14.307 18.9821 16.2731 16.8858 16.9219 13.5547C16.9609 11.8101 16.974 10.0653 16.9609 8.32031ZM15.1641 9.64844C15.2161 10.2208 15.2422 10.8067 15.2422 11.4063C15.4855 14.5679 14.1574 16.7554 11.2578 17.9688C10.9221 18.0592 10.5835 18.1373 10.2422 18.2031C9.0443 18.2552 7.84633 18.2552 6.64844 18.2031C9.50274 15.3619 12.3413 12.5103 15.1641 9.64844Z" fill="black"/>
<path opacity="0.947" fill-rule="evenodd" clip-rule="evenodd" d="M22.5078 14.1016C23.0667 13.9966 23.4443 14.2049 23.6406 14.7266C23.6928 16.0026 23.6928 17.2787 23.6406 18.5547C23.1691 19.3231 22.6222 19.3752 22 18.7109C21.9479 17.3307 21.9479 15.9505 22 14.5703C22.1167 14.3505 22.286 14.1942 22.5078 14.1016Z" fill="black"/>
<path opacity="0.943" fill-rule="evenodd" clip-rule="evenodd" d="M9.85124 23.0859C10.2421 23.0535 10.5676 23.1837 10.8278 23.4765C12.5789 27.1713 15.4825 28.6947 19.5387 28.0468C22.054 27.3557 23.8118 25.8063 24.8122 23.3984C25.3066 22.9687 25.7754 22.9947 26.2184 23.4765C26.3824 23.9028 26.3564 24.3194 26.1403 24.7265C24.4022 28.0879 21.6287 29.8588 17.82 30.039C13.8873 29.8641 11.0618 28.0152 9.34343 24.4922C9.06397 23.8479 9.23319 23.3792 9.85124 23.0859Z" fill="black"/>
</svg>
