<svg width="40" height="40" viewBox="0 0 40 40" fill="none" xmlns="http://www.w3.org/2000/svg">
<g clip-path="url(#clip0_4232_50)">
<path opacity="0.944" fill-rule="evenodd" clip-rule="evenodd" d="M18.2422 -0.0390625C19.4141 -0.0390625 20.5859 -0.0390625 21.7578 -0.0390625C25.1885 0.31028 28.3395 1.44309 31.2109 3.35938C31.7952 3.83052 31.8213 4.32531 31.2891 4.84375C31.0026 5 30.7162 5 30.4297 4.84375C24.7681 1.16207 18.8045 0.589151 12.5391 3.125C6.05002 6.26784 2.4172 11.4371 1.64062 18.6328C1.35518 23.1918 2.55309 27.3063 5.23438 30.9766C5.26141 31.1108 5.30047 31.241 5.35156 31.3672C4.93366 32.8305 4.56907 34.2888 4.25781 35.7422C5.68705 35.3393 7.11935 34.9487 8.55469 34.5703C8.68086 34.6214 8.81109 34.6605 8.94531 34.6875C13.9768 38.26 19.4716 39.1975 25.4297 37.5C32.2802 35.1286 36.4859 30.402 38.0469 23.3203C38.8935 18.2443 37.8779 13.5829 35 9.33594C34.9626 8.4618 35.3662 8.13625 36.2109 8.35938C37.9237 10.6271 39.0565 13.1662 39.6094 15.9766C39.7316 16.7163 39.8488 17.4455 39.9609 18.1641C39.9609 19.3359 39.9609 20.5078 39.9609 21.6797C38.9468 29.6858 34.7541 35.3237 27.3828 38.5938C25.5324 39.3046 23.6314 39.7603 21.6797 39.9609C20.5338 39.9609 19.388 39.9609 18.2422 39.9609C15.4709 39.6668 12.8407 38.8725 10.3516 37.5781C9.67594 37.1429 8.98578 36.7392 8.28125 36.3672C6.65215 36.7907 5.02454 37.2204 3.39844 37.6562C2.5 37.7995 2.1224 37.4219 2.26562 36.5234C2.69145 34.859 3.14717 33.2053 3.63281 31.5625C1.52085 28.5991 0.296897 25.3048 -0.0390625 21.6797C-0.0390625 20.5338 -0.0390625 19.388 -0.0390625 18.2422C0.936266 10.4057 4.99877 4.81977 12.1484 1.48438C14.1158 0.680045 16.147 0.172232 18.2422 -0.0390625ZM19.3359 8.71094C22.1163 8.71992 24.1605 9.94391 25.4688 12.3828C26.5779 15.2249 26.018 17.6859 23.7891 19.7656C23.2815 20.1629 22.7346 20.5014 22.1484 20.7812C21.6055 21.1762 21.2019 21.684 20.9375 22.3047C20.7652 22.8965 20.635 23.4955 20.5469 24.1016C20.0252 24.6328 19.5304 24.6068 19.0625 24.0234C18.908 22.1973 19.5459 20.6998 20.9766 19.5312C21.7399 19.1172 22.456 18.6355 23.125 18.0859C24.517 16.3885 24.6993 14.5656 23.6719 12.6172C22.2634 10.646 20.4015 10.0341 18.0859 10.7812C16.7491 11.389 15.8507 12.3916 15.3906 13.7891C14.6134 14.339 14.1055 14.1567 13.8672 13.2422C14.4126 11.3593 15.5845 10.0182 17.3828 9.21875C18.0287 8.98578 18.6797 8.81648 19.3359 8.71094ZM19.5703 29.4922C20.5577 29.5282 20.8571 29.997 20.4688 30.8984C19.8183 31.3762 19.3235 31.246 18.9844 30.5078C18.9674 30.0438 19.1627 29.7052 19.5703 29.4922Z" fill="black"/>
<path opacity="0.893" fill-rule="evenodd" clip-rule="evenodd" d="M33.1644 5.58604C34.0619 5.48097 34.4396 5.87159 34.2972 6.75791C33.8782 7.27989 33.4094 7.33197 32.8909 6.91416C32.6233 6.39617 32.7144 5.95346 33.1644 5.58604Z" fill="black"/>
<path opacity="0.942" fill-rule="evenodd" clip-rule="evenodd" d="M19.2575 7.07031C22.9127 7.06854 25.5299 8.70914 27.1091 11.9922C28.317 15.5332 27.5487 18.567 24.8044 21.0938C24.147 21.5332 23.4829 21.9629 22.8122 22.3828C22.7081 22.5391 22.6039 22.6953 22.4997 22.8516C22.3598 23.3912 22.2556 23.938 22.1872 24.4922C21.3233 26.117 20.0602 26.5205 18.3982 25.7031C17.7983 25.2726 17.4468 24.6866 17.3435 23.9453C17.3611 20.8488 18.7543 18.6222 21.5232 17.2656C23.1045 15.702 23.0785 14.1655 21.445 12.6563C20.0222 11.7791 18.7332 11.9484 17.5779 13.1641C17.3023 13.611 17.0679 14.0798 16.8747 14.5703C16.22 15.5159 15.3215 15.8935 14.1794 15.7031C12.6056 15.1731 11.9936 14.0924 12.3435 12.4609C13.5666 9.27117 15.8713 7.47431 19.2575 7.07031ZM19.3357 8.71094C18.6794 8.81649 18.0284 8.98578 17.3825 9.21875C15.5842 10.0182 14.4123 11.3593 13.8669 13.2422C14.1053 14.1567 14.6131 14.339 15.3904 13.7891C15.8504 12.3916 16.7489 11.389 18.0857 10.7813C20.4012 10.0341 22.2632 10.646 23.6716 12.6172C24.699 14.5656 24.5168 16.3885 23.1247 18.0859C22.4558 18.6355 21.7397 19.1172 20.9763 19.5313C19.5457 20.6998 18.9077 22.1973 19.0622 24.0234C19.5301 24.6068 20.0249 24.6328 20.5466 24.1016C20.6347 23.4955 20.7649 22.8965 20.9372 22.3047C21.2016 21.684 21.6053 21.1762 22.1482 20.7813C22.7343 20.5014 23.2812 20.1629 23.7888 19.7656C26.0177 17.6859 26.5776 15.2249 25.4685 12.3828C24.1602 9.94391 22.116 8.71992 19.3357 8.71094Z" fill="black"/>
<path opacity="0.943" fill-rule="evenodd" clip-rule="evenodd" d="M19.3361 27.8519C21.1163 27.7578 22.1059 28.5911 22.3048 30.3519C22.1326 32.0475 21.1951 32.8678 19.4923 32.8128C18.0141 32.4803 17.298 31.5558 17.3439 30.0394C17.5381 28.8692 18.2021 28.14 19.3361 27.8519ZM19.5704 29.4925C19.1629 29.7056 18.9675 30.0442 18.9845 30.5081C19.3236 31.2463 19.8184 31.3766 20.4689 30.8988C20.8572 29.9973 20.5578 29.5285 19.5704 29.4925Z" fill="black"/>
</g>
<defs>
<clipPath id="clip0_4232_50">
<rect width="40" height="40" fill="white"/>
</clipPath>
</defs>
</svg>
