<svg width="40" height="40" viewBox="0 0 40 40" fill="none" xmlns="http://www.w3.org/2000/svg">
<g clip-path="url(#clip0_4232_72)">
<path opacity="0.965" fill-rule="evenodd" clip-rule="evenodd" d="M39.9609 3.24219C39.9609 6.02865 39.9609 8.81508 39.9609 11.6016C39.4691 15.7625 37.6593 19.226 34.5312 21.9922C34.5052 24.5963 34.4791 27.2005 34.4531 29.8047C33.8823 32.7453 32.1506 34.6073 29.2578 35.3906C27.073 35.4908 24.8855 35.5428 22.6953 35.5469C21.2608 37.0074 19.8025 38.4398 18.3203 39.8438C17.8506 39.9824 17.473 39.8652 17.1875 39.4922C17.1484 38.1643 17.1354 36.8362 17.1484 35.5078C13.3202 35.5209 9.49211 35.5078 5.66406 35.4688C2.56044 34.826 0.659395 32.964 -0.0390625 29.8828C-0.0390625 25.5338 -0.0390625 21.1849 -0.0390625 16.8359C0.623977 13.712 2.52502 11.824 5.66406 11.1719C9.70047 11.1328 13.7369 11.1198 17.7734 11.1328C17.7604 8.5025 17.7734 5.87227 17.8125 3.24219C17.9102 3.01713 18.0795 2.87391 18.3203 2.8125C21.866 2.48602 25.2515 1.57455 28.4766 0.078125C28.737 0.0260417 28.9974 0.0260417 29.2578 0.078125C32.4829 1.57455 35.8684 2.48602 39.4141 2.8125C39.6579 2.88803 39.8402 3.03126 39.9609 3.24219ZM28.7109 1.75781C30.2279 2.33333 31.7644 2.86719 33.3203 3.35938C34.9879 3.81958 36.6806 4.14509 38.3984 4.33594C38.4246 6.70703 38.3855 9.0768 38.2812 11.4453C37.6523 16.3413 35.2174 20.0263 30.9766 22.5C30.2911 22.8427 29.588 23.1423 28.8672 23.3984C23.6689 21.3895 20.557 17.6395 19.5312 12.1484C19.4491 11.4477 19.397 10.7446 19.375 10.0391C19.3359 8.1382 19.3229 6.23716 19.3359 4.33594C22.6112 3.98609 25.7362 3.12672 28.7109 1.75781ZM6.67969 12.6953C10.4298 12.6823 14.1798 12.6953 17.9297 12.7344C18.6008 16.3171 20.2674 19.3379 22.9297 21.7969C21.8655 22.2986 21.514 23.1189 21.875 24.2578C22.435 25.1651 23.2292 25.4385 24.2578 25.0781C24.8713 24.7242 25.1968 24.1904 25.2344 23.4766C26.2731 24.1456 27.3799 24.6795 28.5547 25.0781C28.763 25.1302 28.9713 25.1302 29.1797 25.0781C30.4974 24.6211 31.7344 24.0091 32.8906 23.2422C32.9606 25.3794 32.9346 27.5148 32.8125 29.6484C32.3047 31.9271 30.9115 33.3203 28.6328 33.8281C26.3952 33.9262 24.1556 33.9783 21.9141 33.9844C20.8355 34.9847 19.7809 36.0134 18.75 37.0703C18.724 36.1588 18.6979 35.2474 18.6719 34.3359C18.5807 34.1927 18.4635 34.0756 18.3203 33.9844C14.388 33.9584 10.4557 33.9323 6.52344 33.9062C3.87597 33.6545 2.24836 32.2352 1.64062 29.6484C1.55358 27.5407 1.51452 25.4313 1.52344 23.3203C1.51452 21.2093 1.55358 19.0999 1.64062 16.9922C2.30663 14.3623 3.98632 12.9299 6.67969 12.6953Z" fill="black"/>
<path opacity="0.958" fill-rule="evenodd" clip-rule="evenodd" d="M10.4296 21.7578C11.7809 21.5748 12.536 22.1478 12.6952 23.4766C12.6692 24.5964 12.0963 25.1693 10.9765 25.1953C10.2584 25.1945 9.72461 24.882 9.37492 24.2578C9.02133 23.1171 9.37289 22.2837 10.4296 21.7578Z" fill="black"/>
<path opacity="0.958" fill-rule="evenodd" clip-rule="evenodd" d="M16.6796 21.7578C18.0309 21.5748 18.786 22.1478 18.9452 23.4766C18.9192 24.5964 18.3463 25.1693 17.2265 25.1953C16.5084 25.1945 15.9746 24.882 15.6249 24.2578C15.2713 23.1171 15.6229 22.2837 16.6796 21.7578Z" fill="black"/>
<path opacity="0.972" fill-rule="evenodd" clip-rule="evenodd" d="M28.7634 5C31.1058 5.07138 32.2259 6.36768 32.1236 8.88888C32.6827 8.91819 33.0748 9.20626 33.2997 9.75308C33.3445 11.7695 33.3445 13.786 33.2997 15.8025C33.1134 16.2662 32.7886 16.5423 32.3253 16.6306C30.2196 16.6787 28.1138 16.6787 26.0081 16.6306C25.5448 16.5423 25.22 16.2662 25.0336 15.8025C24.9888 13.786 24.9888 11.7695 25.0336 9.75308C25.2586 9.20626 25.6506 8.91819 26.2097 8.88888C26.0743 6.82096 26.9255 5.52466 28.7634 5ZM28.8979 6.51234C27.8733 6.90512 27.4477 7.6973 27.621 8.88888C28.6514 8.88888 29.6819 8.88888 30.7124 8.88888C30.7318 8.47515 30.6982 8.06703 30.6116 7.6646C30.3111 6.83661 29.7399 6.45252 28.8979 6.51234ZM28.8979 11.1214C28.101 11.5632 27.9554 12.1874 28.461 12.9938C28.4946 13.4733 28.5058 13.9534 28.4946 14.4341C28.9651 14.4341 29.4355 14.4341 29.9059 14.4341C29.8948 13.9534 29.9059 13.4733 29.9395 12.9938C30.1043 12.7725 30.2051 12.5205 30.2419 12.2376C30.1166 11.4191 29.6685 11.0471 28.8979 11.1214Z" fill="black"/>
</g>
<defs>
<clipPath id="clip0_4232_72">
<rect width="40" height="40" fill="white"/>
</clipPath>
</defs>
</svg>
