<svg width="40" height="40" viewBox="0 0 40 40" fill="none" xmlns="http://www.w3.org/2000/svg">
<g clip-path="url(#clip0_4232_28)">
<path opacity="0.957" fill-rule="evenodd" clip-rule="evenodd" d="M39.9609 8.08594C39.9609 16.7057 39.9609 25.3255 39.9609 33.9453C39.4459 35.9055 38.1959 37.1165 36.2109 37.5781C25.3776 37.6302 14.5443 37.6302 3.71094 37.5781C1.72596 37.1165 0.475959 35.9055 -0.0390625 33.9453C-0.0390625 23.8412 -0.0390625 13.737 -0.0390625 3.63281C0.155118 2.95698 0.597827 2.52729 1.28906 2.34375C12.2266 2.29167 23.1641 2.29167 34.1016 2.34375C34.7599 2.50741 35.1896 2.91105 35.3906 3.55469C35.4991 4.64492 35.5381 5.73867 35.5078 6.83594C36.5498 6.82292 37.5915 6.83595 38.6328 6.875C39.2925 7.05338 39.7352 7.45702 39.9609 8.08594ZM1.83594 4.17969C12.4088 4.17969 22.9818 4.17969 33.5547 4.17969C33.5416 13.3984 33.5547 22.6172 33.5938 31.8359C33.699 32.983 34.311 33.6991 35.4297 33.9844C36.5127 34.1256 36.9423 33.6699 36.7188 32.6172C36.4833 32.2862 36.1577 32.1169 35.7422 32.1094C35.6771 32.0443 35.612 31.9791 35.5469 31.9141C35.5078 24.1798 35.4948 16.4454 35.5078 8.71094C36.3672 8.71094 37.2266 8.71094 38.0859 8.71094C38.099 17.0183 38.0859 25.3255 38.0469 33.6328C37.7734 34.7396 37.0834 35.4297 35.9766 35.7031C25.2995 35.7552 14.6224 35.7552 3.94531 35.7031C2.83854 35.4297 2.14844 34.7396 1.875 33.6328C1.83594 23.8152 1.82291 13.9974 1.83594 4.17969ZM7.22656 14.1016C9.64844 14.1016 12.0703 14.1016 14.4922 14.1016C14.4922 16.5234 14.4922 18.9453 14.4922 21.3672C12.0703 21.3672 9.64844 21.3672 7.22656 21.3672C7.22656 18.9453 7.22656 16.5234 7.22656 14.1016Z" fill="black"/>
<path opacity="0.961" fill-rule="evenodd" clip-rule="evenodd" d="M6.1329 7.69531C13.8413 7.68229 21.5496 7.69531 29.2579 7.73438C30.0181 8.00813 30.2134 8.51594 29.8438 9.25781C29.7205 9.3782 29.5772 9.46938 29.4142 9.53125C21.6017 9.58336 13.7892 9.58336 5.97665 9.53125C5.40797 9.23211 5.2387 8.77633 5.46884 8.16406C5.64339 7.9218 5.86474 7.76555 6.1329 7.69531Z" fill="black"/>
<path opacity="0.964" fill-rule="evenodd" clip-rule="evenodd" d="M6.05469 12.2266C9.25789 12.2135 12.461 12.2266 15.6641 12.2656C16.0156 12.3568 16.237 12.5781 16.3281 12.9297C16.3802 16.1588 16.3802 19.3881 16.3281 22.6172C16.237 22.9167 16.0416 23.112 15.7422 23.2031C12.487 23.2552 9.2318 23.2552 5.97656 23.2031C5.6697 23.0787 5.47438 22.8573 5.39063 22.5391C5.33854 19.3359 5.33854 16.1328 5.39063 12.9297C5.4962 12.577 5.71755 12.3426 6.05469 12.2266ZM7.22656 14.1016C7.22656 16.5234 7.22656 18.9453 7.22656 21.3672C9.64844 21.3672 12.0703 21.3672 14.4922 21.3672C14.4922 18.9453 14.4922 16.5234 14.4922 14.1016C12.0703 14.1016 9.64844 14.1016 7.22656 14.1016Z" fill="black"/>
<path opacity="0.957" fill-rule="evenodd" clip-rule="evenodd" d="M19.7267 12.2266C22.9299 12.2135 26.133 12.2266 29.336 12.2656C30.0806 12.6278 30.2238 13.1617 29.7657 13.8672C29.6549 13.9422 29.5377 14.0073 29.4142 14.0625C26.1589 14.1146 22.9038 14.1146 19.6485 14.0625C19.0799 13.7634 18.9106 13.3076 19.1407 12.6953C19.3055 12.4905 19.5008 12.3342 19.7267 12.2266Z" fill="black"/>
<path opacity="0.957" fill-rule="evenodd" clip-rule="evenodd" d="M19.727 16.7578C22.9302 16.7448 26.1334 16.7578 29.3364 16.7969C30.0498 17.1272 30.206 17.635 29.8052 18.3203C29.6777 18.4607 29.5215 18.5519 29.3364 18.5938C26.1333 18.6459 22.9302 18.6459 19.727 18.5938C19.0934 18.3348 18.8981 17.8791 19.1411 17.2266C19.3059 17.0217 19.5012 16.8655 19.727 16.7578Z" fill="black"/>
<path opacity="0.957" fill-rule="evenodd" clip-rule="evenodd" d="M19.727 21.2891C22.9302 21.276 26.1334 21.2891 29.3364 21.3281C30.0498 21.6584 30.206 22.1663 29.8052 22.8516C29.6777 22.992 29.5215 23.0831 29.3364 23.125C26.1333 23.1771 22.9302 23.1771 19.727 23.125C19.0934 22.866 18.8981 22.4103 19.1411 21.7578C19.3059 21.553 19.5012 21.3967 19.727 21.2891Z" fill="black"/>
<path opacity="0.957" fill-rule="evenodd" clip-rule="evenodd" d="M5.97609 25.8203C9.2314 25.8073 12.4866 25.8203 15.7417 25.8594C16.3359 26.1504 16.5051 26.6061 16.2495 27.2266C16.103 27.4365 15.9077 27.5798 15.6636 27.6563C12.4605 27.7084 9.25734 27.7084 6.05421 27.6563C5.42051 27.3973 5.2252 26.9416 5.46827 26.2891C5.6178 26.105 5.78708 25.9488 5.97609 25.8203Z" fill="black"/>
<path opacity="0.957" fill-rule="evenodd" clip-rule="evenodd" d="M19.6486 25.8203C22.9039 25.8073 26.1591 25.8203 29.4142 25.8594C30.0625 26.2295 30.1927 26.7373 29.8048 27.3828C29.6774 27.5232 29.5211 27.6144 29.336 27.6563C26.1329 27.7084 22.9298 27.7084 19.7267 27.6563C19.0299 27.3367 18.8606 26.8289 19.2189 26.1328C19.3604 26.0174 19.5036 25.9133 19.6486 25.8203Z" fill="black"/>
<path opacity="0.956" fill-rule="evenodd" clip-rule="evenodd" d="M5.97667 30.3516C9.23198 30.3385 12.4872 30.3516 15.7423 30.3906C16.4068 30.7554 16.537 31.2632 16.1329 31.9141C15.9927 32.0862 15.8103 32.1773 15.586 32.1875C12.435 32.2396 9.28393 32.2396 6.13292 32.1875C5.43517 31.9713 5.21382 31.5155 5.46885 30.8203C5.58554 30.6005 5.75481 30.4442 5.97667 30.3516Z" fill="black"/>
<path opacity="0.956" fill-rule="evenodd" clip-rule="evenodd" d="M19.6481 30.3516C22.9034 30.3385 26.1587 30.3516 29.4137 30.3906C29.8233 30.5447 30.0317 30.8442 30.0387 31.2891C30.0041 31.7897 29.7437 32.0892 29.2575 32.1875C26.1065 32.2396 22.9554 32.2396 19.8044 32.1875C19.0442 31.9138 18.8489 31.4059 19.2184 30.6641C19.36 30.5487 19.5032 30.4445 19.6481 30.3516Z" fill="black"/>
</g>
<defs>
<clipPath id="clip0_4232_28">
<rect width="40" height="40" fill="white"/>
</clipPath>
</defs>
</svg>
