<svg width="40" height="40" viewBox="0 0 40 40" fill="none" xmlns="http://www.w3.org/2000/svg">
<g clip-path="url(#clip0_4232_60)">
<path opacity="0.949" fill-rule="evenodd" clip-rule="evenodd" d="M15.3511 -0.0390625C16.3667 -0.0390625 17.3823 -0.0390625 18.3979 -0.0390625C24.079 0.828344 28.0504 3.90126 30.312 9.17969C31.1214 11.3446 31.3948 13.5712 31.1323 15.8594C31.7022 16.9601 32.2621 18.0669 32.812 19.1797C33.2016 20.4187 32.798 21.291 31.6011 21.7969C30.8463 21.8359 30.0911 21.8489 29.3354 21.8359C29.3484 22.5655 29.3354 23.2948 29.2964 24.0234C29.2672 24.095 29.2281 24.1602 29.1792 24.2188C28.2231 24.3198 27.2596 24.372 26.2886 24.375C24.6046 24.6833 24.0707 25.6338 24.687 27.2266C25.0674 27.7358 25.5752 28.0092 26.2104 28.0469C27.1479 28.0729 28.0854 28.099 29.0229 28.125C29.0945 28.1542 29.1597 28.1933 29.2182 28.2422C29.3458 29.4068 29.3719 30.5787 29.2964 31.7578C29.075 32.3959 28.6454 32.8255 28.0073 33.0469C26.1846 33.0859 24.3617 33.099 22.5386 33.0859C22.5516 35.1695 22.5386 37.2527 22.4995 39.3359C22.4803 39.6098 22.3631 39.818 22.1479 39.9609C16.9396 39.9609 11.7313 39.9609 6.52294 39.9609C6.39453 39.8972 6.30338 39.793 6.2495 39.6484C6.22346 34.5182 6.19741 29.388 6.17137 24.2578C5.84366 23.6691 5.45304 23.1223 4.9995 22.6172C2.24779 18.4158 1.70091 13.9366 3.35888 9.17969C5.64566 3.87668 9.64301 0.803766 15.3511 -0.0390625ZM15.4292 1.28906C20.9927 0.991102 25.2505 3.1786 28.2026 7.85156C29.6311 10.463 30.178 13.2495 29.8432 16.2109C30.4764 17.4513 31.0885 18.7013 31.6792 19.9609C31.608 20.3056 31.3997 20.5009 31.0542 20.5469C30.1352 20.5502 29.2237 20.6022 28.3198 20.7031C28.2547 20.7682 28.1896 20.8334 28.1245 20.8984C28.0854 21.6271 28.0725 22.3563 28.0854 23.0859C27.2517 23.0729 26.4183 23.0859 25.5854 23.125C23.6955 23.688 22.8752 24.9509 23.1245 26.9141C23.45 28.1771 24.2443 28.9713 25.5073 29.2969C26.3663 29.3359 27.2257 29.349 28.0854 29.3359C28.0984 29.9615 28.0854 30.5865 28.0464 31.2109C28.0147 31.4448 27.8975 31.6141 27.6948 31.7188C25.7986 31.8206 23.8976 31.8727 21.9917 31.875C21.6401 32.0182 21.3927 32.2656 21.2495 32.6172C21.2104 34.6483 21.1974 36.6795 21.2104 38.7109C16.6532 38.7109 12.0958 38.7109 7.53856 38.7109C7.55159 33.8671 7.53856 29.0234 7.4995 24.1797C7.474 23.8167 7.36984 23.4782 7.187 23.1641C3.76381 19.1633 2.90444 14.658 4.60887 9.64844C6.68494 4.87669 10.2917 2.09023 15.4292 1.28906Z" fill="black"/>
<path opacity="0.93" fill-rule="evenodd" clip-rule="evenodd" d="M15.5857 3.71081C16.1675 3.67733 16.7405 3.71639 17.3045 3.828C17.4952 4.14459 17.5083 4.47011 17.3435 4.80456C17.1916 4.91107 17.0223 4.97617 16.8357 4.99987C12.9577 5.18646 10.1323 6.99636 8.35915 10.4296C7.80344 11.6716 7.51699 12.9736 7.49978 14.3358C7.49133 14.774 7.26998 14.9824 6.83571 14.9608C6.56451 14.9881 6.3692 14.8839 6.24978 14.6483C6.20786 10.5255 7.91361 7.36147 11.367 5.15612C12.695 4.41404 14.1013 3.93227 15.5857 3.71081Z" fill="black"/>
<path opacity="0.92" fill-rule="evenodd" clip-rule="evenodd" d="M35.2731 21.2104C36.1314 21.1289 36.4048 21.4935 36.0935 22.3041C35.2471 22.9422 34.4007 23.5801 33.5544 24.2182C32.6038 24.5176 32.2784 24.1922 32.5778 23.2416C33.4886 22.5724 34.3871 21.8954 35.2731 21.2104Z" fill="black"/>
<path opacity="0.972" fill-rule="evenodd" clip-rule="evenodd" d="M33.3985 25.5859C34.6488 25.5729 35.8988 25.5859 37.1485 25.625C37.2917 25.6641 37.3829 25.7552 37.422 25.8984C37.4741 26.1068 37.4741 26.3151 37.422 26.5234C37.3829 26.6667 37.2917 26.7578 37.1485 26.7969C35.8985 26.849 34.6485 26.849 33.3985 26.7969C33.1629 26.6774 33.0588 26.4821 33.086 26.2109C33.069 25.9324 33.1732 25.7241 33.3985 25.5859Z" fill="black"/>
<path opacity="0.921" fill-rule="evenodd" clip-rule="evenodd" d="M32.7733 28.0863C33.0451 28.0616 33.3055 28.1006 33.5546 28.2035C34.388 28.8285 35.2212 29.4535 36.0546 30.0785C36.4192 31.042 36.1067 31.3806 35.1171 31.0941C34.2184 30.4289 33.346 29.7389 32.4999 29.0238C32.39 28.6375 32.4811 28.325 32.7733 28.0863Z" fill="black"/>
</g>
<defs>
<clipPath id="clip0_4232_60">
<rect width="40" height="40" fill="white"/>
</clipPath>
</defs>
</svg>
