<svg width="40" height="40" viewBox="0 0 40 40" fill="none" xmlns="http://www.w3.org/2000/svg">
<rect width="40" height="40" rx="20" fill="#448D57" fill-opacity="0.07"/>
<path d="M22.5 20C22.5 20.4945 22.3534 20.9778 22.0787 21.3889C21.804 21.8 21.4135 22.1205 20.9567 22.3097C20.4999 22.4989 19.9972 22.5484 19.5123 22.452C19.0273 22.3555 18.5819 22.1174 18.2322 21.7678C17.8826 21.4181 17.6445 20.9727 17.548 20.4877C17.4516 20.0028 17.5011 19.5001 17.6903 19.0433C17.8795 18.5865 18.2 18.196 18.6111 17.9213C19.0222 17.6466 19.5055 17.5 20 17.5C20.663 17.5 21.2989 17.7634 21.7678 18.2322C22.2366 18.7011 22.5 19.337 22.5 20ZM9.375 17.5C8.88055 17.5 8.3972 17.6466 7.98608 17.9213C7.57495 18.196 7.25452 18.5865 7.0653 19.0433C6.87608 19.5001 6.82657 20.0028 6.92304 20.4877C7.0195 20.9727 7.2576 21.4181 7.60723 21.7678C7.95687 22.1174 8.40232 22.3555 8.88728 22.452C9.37223 22.5484 9.87489 22.4989 10.3317 22.3097C10.7885 22.1205 11.179 21.8 11.4537 21.3889C11.7284 20.9778 11.875 20.4945 11.875 20C11.875 19.337 11.6116 18.7011 11.1428 18.2322C10.6739 17.7634 10.038 17.5 9.375 17.5ZM30.625 17.5C30.1305 17.5 29.6472 17.6466 29.2361 17.9213C28.825 18.196 28.5045 18.5865 28.3153 19.0433C28.1261 19.5001 28.0766 20.0028 28.173 20.4877C28.2695 20.9727 28.5076 21.4181 28.8572 21.7678C29.2069 22.1174 29.6523 22.3555 30.1373 22.452C30.6222 22.5484 31.1249 22.4989 31.5817 22.3097C32.0385 22.1205 32.429 21.8 32.7037 21.3889C32.9784 20.9778 33.125 20.4945 33.125 20C33.125 19.337 32.8616 18.7011 32.3928 18.2322C31.9239 17.7634 31.288 17.5 30.625 17.5Z" fill="#448D57"/>
</svg>
