<svg width="24" height="24" viewBox="0 0 24 24" fill="none" xmlns="http://www.w3.org/2000/svg">
<g clip-path="url(#clip0_4037_28757)">
<g clip-path="url(#clip1_4037_28757)">
<path d="M16.4585 12.586V23.25H7.54345V12.586V11.836H6.79345H2.03397C1.3642 11.8068 1.06735 11.6144 0.928013 11.4225L0.928025 11.4225L0.925175 11.4186C0.705965 11.1208 0.705216 10.8511 0.85111 10.524C1.01771 10.1505 1.36266 9.76093 1.76109 9.40715L1.7611 9.40715L10.9673 1.23266L10.9841 1.2177L11 1.20175C11.6014 0.599416 12.4005 0.599416 13.0019 1.20175L13.0183 1.21815L13.0357 1.23351L22.0148 9.17878L22.0148 9.17882C22.4553 9.56857 22.8781 10.0006 23.1011 10.43C23.2079 10.6358 23.2511 10.8081 23.25 10.9518C23.249 11.0843 23.2109 11.2365 23.0768 11.4186L23.074 11.4225C22.9347 11.6143 22.6379 11.8068 21.9675 11.836H17.2085H16.4585V12.586Z" stroke="#448D57" stroke-width="1.5"/>
</g>
</g>
<defs>
<clipPath id="clip0_4037_28757">
<rect width="24" height="24" fill="white"/>
</clipPath>
<clipPath id="clip1_4037_28757">
<rect width="24" height="24" fill="white"/>
</clipPath>
</defs>
</svg>
